<svg width="726" height="823" viewBox="0 0 726 823" fill="none" xmlns="http://www.w3.org/2000/svg">
<path d="M328.473 181.504C330 183 330 183 330.5 185.875C329.902 189.616 328.565 191.274 326 194C326.606 194.243 327.212 194.487 327.836 194.738C330.433 196.252 331.22 197.554 332.625 200.187C333.03 200.923 333.435 201.659 333.852 202.418C336.298 207.918 337.157 212.819 337.175 218.763C337.226 228.552 338.994 235.018 345 243C348.92 248.321 348.92 248.321 349.313 251.625C347.089 255.65 343.197 256.404 339 258C339 261.3 339 264.6 339 268C337.35 268.66 335.7 269.32 334 270C333.975 271.264 333.949 272.529 333.922 273.832C333.866 275.492 333.809 277.152 333.75 278.812C333.736 279.646 333.722 280.479 333.707 281.338C333.461 287.485 333.461 287.485 331.203 290.012C326.549 292.099 322.251 292.183 317.188 292.187C316.501 292.2 315.815 292.212 315.108 292.224C310.375 292.238 306.496 291.486 302 290C301.83 290.522 301.66 291.044 301.485 291.582C301.242 292.318 301 293.054 300.75 293.812C300.346 295.044 300.346 295.044 299.934 296.301C299.303 298.126 298.627 299.936 297.91 301.73C294.576 310.14 294.576 310.14 295 319C297.343 323.259 299.958 326.305 304 329C306.406 329.304 306.406 329.304 309.139 329.26C310.744 329.27 310.744 329.27 312.382 329.281C313.562 329.279 314.742 329.276 315.957 329.274C317.833 329.282 317.833 329.282 319.746 329.29C323.224 329.304 326.701 329.306 330.179 329.305C333.928 329.307 337.677 329.32 341.426 329.331C349.631 329.354 357.837 329.362 366.042 329.367C371.171 329.371 376.301 329.377 381.43 329.384C395.646 329.404 409.861 329.42 424.076 329.423C424.987 329.423 425.897 329.424 426.835 329.424C428.68 329.424 430.526 329.424 432.371 329.425C433.745 329.425 433.745 329.425 435.147 329.425C436.523 329.426 436.523 329.426 437.926 329.426C452.75 329.429 467.574 329.456 482.398 329.494C497.635 329.532 512.872 329.551 528.109 329.552C536.657 329.552 545.204 329.561 553.752 329.59C561.04 329.614 568.327 329.621 575.615 329.606C579.326 329.599 583.037 329.6 586.748 329.623C601.289 329.708 614.843 329.436 628.822 325.072C633.15 323.802 637.517 323.345 642 324C643.685 325.31 645.352 326.644 647 328C649.924 328.343 652.453 328.469 655.364 328.39C656.156 328.385 656.948 328.379 657.764 328.373C660.281 328.351 662.796 328.301 665.313 328.25C667.024 328.23 668.736 328.211 670.448 328.195C674.632 328.151 678.816 328.082 683 328C682.567 327.157 682.134 326.314 681.688 325.445C680.853 323.802 680.853 323.802 680 322.125C679.165 320.489 679.165 320.489 678.313 318.82C677 316 677 316 677 314C683.315 316.025 689.481 318.311 695.629 320.793C696.504 321.144 697.38 321.495 698.281 321.856C701.043 322.964 703.803 324.076 706.563 325.187C708.449 325.945 710.335 326.702 712.221 327.459C716.815 329.303 721.408 331.151 726 333C726 333.66 726 334.32 726 335C720.489 337.229 714.976 339.453 709.46 341.671C707.587 342.425 705.716 343.18 703.845 343.938C701.14 345.032 698.434 346.12 695.727 347.207C694.904 347.541 694.08 347.876 693.232 348.22C687.574 350.484 681.863 352.339 676 354C677.537 348.879 679.528 344.944 682 340C671.77 339.67 661.54 339.34 651 339C650.67 340.32 650.34 341.64 650 343C645.566 342.606 642.106 341.674 638 339.937C630.764 337.171 622.261 336.853 614.673 338.507C611.679 339.059 608.902 339.124 605.857 339.123C604.613 339.125 603.37 339.127 602.09 339.129C600.713 339.126 599.336 339.123 597.96 339.12C596.495 339.121 595.031 339.121 593.566 339.123C589.542 339.125 585.517 339.121 581.492 339.116C577.152 339.112 572.812 339.113 568.471 339.114C560.952 339.114 553.432 339.111 545.912 339.106C535.04 339.097 524.168 339.095 513.296 339.094C495.656 339.091 478.017 339.085 460.378 339.075C443.242 339.066 426.107 339.059 408.971 339.055C407.915 339.054 406.859 339.054 405.771 339.054C400.473 339.053 395.175 339.051 389.877 339.05C345.918 339.04 301.959 339.022 258 339C258.745 340.172 258.745 340.172 259.504 341.367C261 344 261 344 260.938 346.125C259.605 348.789 258.701 349.65 256 351C254.54 350.93 253.081 350.822 251.625 350.687C249.244 350.507 249.244 350.507 247 351C245.186 352.805 243.966 354.74 242.578 356.887C239.393 361.152 234.938 363.42 229.762 364.441C220.411 364.928 209.417 361.914 201.125 357.687C192.327 353.474 181.549 358.367 172.875 361.062C171.544 361.468 170.213 361.873 168.881 362.278C160.699 364.78 152.593 367.471 144.5 370.25C128.177 375.835 111.342 380.258 94.0003 380.062C93.2256 380.058 92.4509 380.053 91.6527 380.049C89.7685 380.037 87.8844 380.019 86.0003 380C111.527 388.933 137.052 379.013 161.216 370.366C179.6 363.822 192.625 360.66 211.426 366.844C219.862 369.572 231.253 371.249 239.625 367.437C242.291 365.819 243.849 363.992 245.688 361.5C249.136 357.029 253.674 356.232 258.977 354.922C262.051 353.984 263.801 353.334 266 351C266.387 349.009 266.725 347.009 267 345C275.174 344.859 283.347 344.753 291.521 344.689C295.32 344.658 299.118 344.616 302.916 344.547C322.136 344.206 339.475 345.146 358 351C358.742 351.231 359.484 351.462 360.249 351.7C364.499 353.044 368.687 354.536 372.875 356.062C385.576 360.518 398.232 363.349 411.517 365.447C416.543 366.245 421.556 367.108 426.57 367.971C429.019 368.392 431.469 368.807 433.921 369.214C439.643 370.177 445.275 371.275 450.914 372.648C458.216 374.354 463.727 374.181 470.913 372.323C483.936 369.045 496.761 368.311 510.125 367.812C511.096 367.776 512.066 367.739 513.066 367.701C516.872 367.558 520.679 367.419 524.485 367.284C539.761 366.736 554.675 365.02 569.75 362.562C571.013 362.357 572.277 362.152 573.578 361.94C590.369 359.311 590.369 359.311 603.063 348.937C607.588 343.538 613.275 342.865 620 342C620.713 341.898 621.426 341.796 622.161 341.691C631.177 341.06 641.42 345.423 649 350C650.7 352.701 651.016 353.742 650.813 357C650 360 650 360 648.563 361.812C646.519 364.673 646.134 367.36 645.473 370.777C645 373 645 373 643.875 375.937C641.521 384.178 643.473 392.37 645.438 400.5C655.258 441.818 644.073 484.004 622.4 519.776C615.485 530.763 607.678 540.875 598.657 550.203C596.801 552.156 595.078 554.079 593.379 556.156C591.478 558.429 589.683 560.341 587.438 562.25C586.748 562.836 586.059 563.423 585.348 564.027C584.573 564.678 583.799 565.329 583 566C582.112 566.764 581.224 567.529 580.309 568.316C551.299 593 551.299 593 544 593C543.632 591.461 543.282 589.919 542.938 588.375C542.741 587.516 542.543 586.658 542.34 585.773C541.938 582.495 542.07 580.178 543 577C545.047 574.867 545.047 574.867 547.75 572.875C585.471 543.727 610.352 500.943 617.319 453.843C618.389 445.027 618.195 436.115 618.188 427.25C618.189 426.384 618.189 425.518 618.19 424.626C618.189 412.778 617.834 401.097 616.438 389.32C615.072 377.216 615.072 377.216 617.813 373.625C618.535 373.089 619.257 372.552 620 372C622.187 370.076 623.073 368.84 624.313 366.125C626.397 362.266 628.537 360.652 632 358C632.66 357.34 633.32 356.68 634 356C631.235 354.009 629.901 354.009 626.438 354.312C622.947 355.568 622.947 355.568 622.164 357.898C621.75 359.476 621.343 361.055 620.942 362.637C619.507 366.238 616.844 367.848 613.844 370.168C611.669 372.329 611.216 373.862 610.5 376.812C609.871 379.117 609.871 379.117 609 381C605.986 382.26 604.16 382.685 601 383C592.921 384.074 585.652 385.91 578.059 388.851C576.003 389.625 573.947 390.398 571.891 391.171C570.836 391.573 569.781 391.974 568.694 392.388C550.327 399.365 532.026 406.036 513 411C512.21 411.212 511.421 411.425 510.607 411.644C502.258 413.873 493.855 415.454 485.313 416.75C484.084 416.942 484.084 416.942 482.831 417.138C470.604 418.855 458.215 417.999 445.938 417.25C445.244 417.208 444.55 417.165 443.836 417.122C422.067 415.77 400.082 413.957 378.625 409.937C377.825 409.787 377.024 409.637 376.199 409.483C371.472 408.514 367.22 407.379 363 405C361.032 401.961 361.032 401.961 359.5 398.375C356.685 392.186 353.478 387.112 349 382C347.827 380.646 347.827 380.646 346.629 379.265C342.8 374.537 342.8 374.537 338 371C338.853 372.056 338.853 372.056 339.723 373.133C351.553 388.261 357.549 402.605 356 422C355.06 427.332 352.95 430.896 349.426 434.992C339.37 446.977 338.711 460.09 337.523 475.106C337.083 480.559 336.323 485.921 335.424 491.315C334.168 499.278 335.506 505.983 337.489 513.71C345.906 546.628 338.673 593.819 323 624C322.34 624.33 321.68 624.66 321 625C320.679 624.366 320.357 623.732 320.026 623.079C311.405 606.008 311.405 606.008 301 590C300.4 589.179 299.799 588.358 299.18 587.512C297.805 585.659 296.415 583.822 295 582C295.462 582.865 295.923 583.73 296.399 584.621C327.93 644.973 349.85 736.13 331.196 803.562C328.557 811.152 325.293 817.272 318 821C315.173 821.942 313.422 822.131 310.492 822.147C309.566 822.154 308.64 822.161 307.685 822.169C306.668 822.171 305.651 822.174 304.603 822.177C303.527 822.183 302.451 822.19 301.342 822.196C297.745 822.216 294.148 822.228 290.551 822.238C289.308 822.243 288.065 822.248 286.784 822.252C277.997 822.286 269.211 822.302 260.424 822.31C258.318 822.312 256.212 822.315 254.106 822.318C217.175 822.372 180.345 822.096 143.492 819.423C118.818 817.634 94.3088 817.035 69.6484 819.274C56.0771 820.45 42.4856 820.214 28.8753 820.125C26.1514 820.114 23.4274 820.105 20.7035 820.097C14.1357 820.076 7.56802 820.043 1.00034 820C0.829926 814.234 0.829926 814.234 2.36362 812.129C7.97534 807.619 13.8608 803.753 20.0003 800C23.1255 797.976 23.1255 797.976 26.2464 795.945C30.076 793.881 33.839 793.868 38.1253 793.687C51.5254 792.67 61.4421 785.947 70.5628 776.312C75.6641 771.047 81.5986 766.909 89.1253 766.437C97.0748 767.591 101.616 771.133 106.848 777.097C112.844 782.397 119.827 782.802 127.461 782.539C147.133 781.073 167.141 774.614 186.192 769.666C214.436 762.406 242.555 762.672 269 776C263.238 762.052 263.238 762.052 256.625 748.5C245.081 725.947 235.818 699.384 230.897 674.591C229.579 668.564 226.942 664.683 223 660C211.076 644.817 204.385 631.277 204.625 611.75C204.635 610.557 204.646 609.364 204.656 608.135C205.024 587.193 212.546 568.266 220.105 548.975C221.006 546.673 221.898 544.367 222.789 542.06C225.882 534.105 229.13 526.305 232.836 518.612C236.295 510.85 236.862 501.523 234.142 493.453C231.672 487.547 228.691 481.897 225.699 476.242C223.607 472.249 221.612 468.213 219.617 464.171C214.834 454.482 209.963 444.845 204.875 435.312C200.857 427.776 197.085 420.13 193.375 412.437C192.842 411.335 192.308 410.233 191.758 409.097C191.268 408.073 190.778 407.05 190.274 405.996C189.615 404.622 189.615 404.622 188.943 403.22C188 401 188 401 188 399C196.516 399.608 202.544 402.35 209 408C206.31 401.623 203.364 397.138 197.024 394.031C186.222 390.022 173.847 391.543 162.69 393.081C149.26 394.917 136.039 395.337 122.5 395.375C121.104 395.386 121.104 395.386 119.679 395.398C101.218 395.52 84.4283 393.103 67.0003 387C66.0774 386.693 65.1544 386.386 64.2035 386.07C52.446 381.839 42.6466 374.494 36.0628 363.875C34.8267 360.53 34.4117 358.532 35.0003 355C45.0395 341.18 67.5462 333.562 83.8449 330.34C93.111 328.877 102.511 328.837 111.87 328.77C114.146 328.753 116.421 328.73 118.697 328.705C125.161 328.635 131.624 328.575 138.087 328.523C174.078 328.352 174.078 328.352 209.563 322.875C227.991 318.675 227.991 318.675 237.313 322.812C238.633 323.366 239.955 323.917 241.278 324.465C242.233 324.863 242.233 324.863 243.207 325.269C250.317 328.167 256.329 329.371 264 329C257.718 323.306 251.126 321.106 243 319C244.393 314.814 246.582 311.424 248.986 307.771C259.104 292.393 266.453 276.846 271 259C273.31 259 275.62 259 278 259C276.907 258.567 275.814 258.134 274.688 257.687C271.912 256.493 269.852 255.469 268 253C266.797 249.391 266.595 246.786 267 243C270.852 239.969 275.122 239.122 279.813 238.125C289.376 235.89 296.44 232.389 302 224C303.642 220.922 305.236 217.827 306.811 214.715C310.012 208.581 314.059 203.861 319 199C310.468 202.994 305.307 209.89 300.121 217.493C295.888 223.577 291.099 228.792 283.875 231.125C282.945 231.435 282.014 231.746 281.055 232.066C278.876 232.732 276.694 233.384 274.508 234.027C273.351 234.369 272.193 234.71 271 235.062C269.928 235.363 268.855 235.663 267.75 235.972C264.989 237.004 263.639 237.57 262 240C261.6 242.409 261.6 242.409 261.75 245C261.766 245.866 261.781 246.732 261.797 247.625C261.92 250.148 261.92 250.148 263 253C264.687 264.557 260.267 274.454 254.071 283.961C246.18 294.26 235.357 304.19 222 306C210.421 306.715 200.692 306.605 191.125 299.25C185.964 294.466 183.33 287.967 182.563 281.062C182.665 273.212 186.957 265.756 192.313 260.187C194.909 257.809 197.679 255.727 200.5 253.625C214.039 243.167 217.766 227.562 221.177 211.534C224.179 197.752 230.147 186.189 242 178C266.519 164.513 304.37 166.844 328.473 181.504Z" fill="#F9F7F2"/>
<path d="M455.25 530.563C456.154 530.561 457.058 530.559 457.989 530.557C507.148 530.577 507.148 530.577 520.281 543.08C525.991 549.458 527.873 557.619 529.355 565.813C531.462 576.328 534.543 586.151 538.271 596.191C540.163 601.295 542.001 606.418 543.844 611.539C544.247 612.657 544.65 613.775 545.065 614.927C551.241 632.137 556.993 649.496 562.807 666.83C568.26 683.089 573.768 699.326 579.457 715.504C579.706 716.214 579.955 716.924 580.211 717.656C588.805 742.16 598.169 760.654 619 777C620.16 777.946 621.317 778.894 622.473 779.844C630.778 786.643 639.323 792.943 648.281 798.856C649.724 799.817 651.146 800.809 652.562 801.809C658.703 805.913 665.355 807.897 672.402 809.91C679.826 812.06 679.826 812.06 683 815C682.72 816.893 682.72 816.893 682 819C676.372 821.75 671.477 822.475 665.277 822.504C664.055 822.523 664.055 822.523 662.808 822.541C660.184 822.569 657.561 822.569 654.938 822.563C654.043 822.565 653.149 822.567 652.228 822.569C638.399 822.566 626.325 820.817 613.115 816.607C604.213 814.055 596.252 816.64 587.68 819.094C579.581 821.089 572.532 820.859 564.938 817.364C562.275 815.49 560.733 813.775 559 811C558.655 808.253 558.523 805.976 558.625 803.25C558.638 802.538 558.651 801.826 558.664 801.092C558.797 796.539 559.4 792.374 560.539 787.985C565.221 767.83 548.394 745.196 538.438 729.063C527.344 711.375 515.33 694.11 502.102 677.946C487.48 660.062 478.024 638.41 479 615C479.715 608.056 481.197 602.406 484 596C463.673 603.421 443.804 611.533 424.172 620.642C409.468 627.437 394.554 633.576 378.75 637.313C377.22 637.681 377.22 637.681 375.658 638.056C363.435 640.921 351.803 642.167 339.25 642.313C338.188 642.331 337.127 642.349 336.033 642.367C335.037 642.366 334.042 642.365 333.016 642.364C332.121 642.367 331.227 642.37 330.306 642.373C327.577 641.932 326.703 641.121 325 639C326.407 634.612 328.048 630.381 329.812 626.125C339.719 601.528 344.378 575.43 345.754 549.012C346 546 346 546 347 543C348.226 542.986 349.452 542.972 350.715 542.957C364.159 542.644 376.705 540.465 389.827 537.656C395.01 536.585 400.218 535.686 405.438 534.813C406.334 534.658 407.231 534.504 408.156 534.345C423.834 531.747 439.364 530.564 455.25 530.563Z" fill="#F9F7F2"/>
<path d="M402 0C403.32 0 404.64 0 406 0C407.683 2.95071 408.254 5.10625 408.308 8.49219C408.331 9.35554 408.354 10.2189 408.378 11.1084C408.397 12.0214 408.417 12.9344 408.437 13.875C408.876 26.0377 409.765 37.7554 417 48C417.457 48.6626 417.915 49.3252 418.386 50.0078C431.17 66.4301 455.464 72.8259 474.013 80.1748C515.539 96.6315 556.202 116.382 590 146C590.897 146.773 591.794 147.547 592.719 148.344C626.204 177.695 646.288 223.587 649.843 267.573C650.905 284.009 649.851 300.17 645 316C643.135 317.865 639.945 317.533 637.437 317.812C629.093 318.815 621.1 320.807 613 323C613.699 316.216 614.704 309.55 615.894 302.838C623.262 260.155 614.549 214.85 589.922 178.973C565.046 144.926 530.632 123.248 493.169 105.054C491.66 104.321 490.153 103.584 488.647 102.845C478.456 97.8472 468.191 93.1777 457.687 88.875C444.405 83.4208 431.408 77.885 420 69C419.052 68.2981 419.052 68.2981 418.086 67.582C407.645 59.3723 402.133 46.9093 400 34C399.807 29.6758 399.814 25.3534 399.814 21.0251C399.812 18.9404 399.794 16.8562 399.775 14.7715C399.773 13.4534 399.771 12.1354 399.769 10.7773C399.765 9.57328 399.761 8.36921 399.757 7.12866C399.988 4.15646 400.439 2.49663 402 0Z" fill="#F8F6F2"/>
<path d="M677 314C683.315 316.025 689.481 318.311 695.629 320.793C696.504 321.144 697.379 321.495 698.281 321.856C701.042 322.964 703.802 324.076 706.562 325.188C708.448 325.945 710.335 326.702 712.221 327.459C716.815 329.303 721.408 331.151 726 333C726 333.66 726 334.32 726 335C720.489 337.229 714.975 339.453 709.459 341.671C707.587 342.425 705.715 343.181 703.844 343.938C701.14 345.032 698.434 346.12 695.727 347.207C694.903 347.542 694.08 347.876 693.232 348.221C687.574 350.484 681.862 352.339 676 354C677.076 350.413 678.385 347.112 680.078 343.781C680.618 342.715 680.618 342.715 681.169 341.627C681.443 341.09 681.717 340.553 682 340C681.132 339.985 680.264 339.971 679.37 339.956C676.153 339.895 672.936 339.821 669.72 339.738C668.327 339.704 666.934 339.676 665.541 339.654C663.54 339.62 661.54 339.566 659.539 339.512C658.335 339.486 657.13 339.459 655.889 339.432C654.936 339.29 653.982 339.147 653 339C652.34 338.01 651.68 337.02 651 336C657.93 336 664.86 336 672 336C672 334.68 672 333.36 672 332C664.41 332 656.82 332 649 332C648.67 331.01 648.34 330.02 648 329C665.325 328.505 665.325 328.505 683 328C681.02 324.04 679.04 320.08 677 316C677 315.34 677 314.68 677 314Z" fill="#F3F1EC"/>
<path d="M474 632.001C474.495 636.456 474.495 636.456 475 641.001C474.033 641.618 473.067 642.236 472.07 642.872C458.293 651.783 446.069 660.727 441 677.001C439.636 683.384 439.696 689.887 439.57 696.389C439.4 701.383 439.224 704.923 436 709.001C433.563 708.626 433.563 708.626 431 708.001C428.845 703.691 429.773 697.941 429.76 693.154C429.75 691.036 429.719 688.919 429.688 686.801C429.57 672.026 433.277 660.908 443.563 649.938C448.705 645.067 454.55 641.071 460.394 637.094C461.784 636.148 463.163 635.185 464.539 634.219C469.499 630.875 469.499 630.875 474 632.001Z" fill="#F6F4F0"/>
<path d="M402 0C403.32 0 404.64 0 406 0C407.675 2.94276 408.262 5.11723 408.344 8.49219C408.372 9.35626 408.4 10.2203 408.43 11.1106C408.453 12.0228 408.476 12.9351 408.5 13.875C408.799 22.3847 409.546 30.6001 411 39C410.01 39.495 410.01 39.495 409 40C408.01 36.535 408.01 36.535 407 33C405.048 34.9522 404.151 36.532 403 39C402.34 39 401.68 39 401 39C399.592 33.052 399.814 27.1064 399.814 21.0251C399.812 18.9404 399.794 16.8562 399.775 14.7715C399.773 13.4534 399.771 12.1354 399.769 10.7773C399.765 9.57328 399.761 8.36921 399.757 7.12866C399.988 4.15646 400.439 2.49663 402 0Z" fill="#EAE9E6"/>
<path d="M99 390C99.33 390.66 99.66 391.32 100 392C105.82 393.39 112.034 393.089 117.973 392.879C118.781 392.855 119.59 392.832 120.423 392.807C122.97 392.732 125.516 392.647 128.062 392.562C129.804 392.509 131.546 392.456 133.287 392.404C137.525 392.276 141.763 392.14 146 392C145.67 392.99 145.34 393.98 145 395C138.862 395.025 132.724 395.043 126.586 395.055C124.499 395.06 122.413 395.067 120.327 395.075C117.321 395.088 114.315 395.093 111.309 395.098C109.919 395.105 109.919 395.105 108.502 395.113C103.556 395.114 98.8755 394.843 94 394C93.67 393.01 93.34 392.02 93 391C94.98 390.67 96.96 390.34 99 390Z" fill="#F0EEEB"/>
<path d="M444.223 413.77C446.123 413.791 446.123 413.791 448.062 413.812C449.967 413.822 449.967 413.822 451.91 413.832C455 414 455 414 456 415C457.562 415.087 459.127 415.107 460.691 415.098C461.636 415.094 462.58 415.091 463.553 415.088C464.546 415.08 465.539 415.071 466.562 415.062C467.56 415.058 468.557 415.053 469.584 415.049C472.056 415.037 474.528 415.021 477 415C476.34 415.99 475.68 416.98 475 418C463.421 419.693 450.565 417.181 439 416C441 414 441 414 444.223 413.77Z" fill="#E8E7E5"/>
<path d="M220.938 764.937C222.536 764.944 222.536 764.944 224.166 764.95C226.777 764.962 229.389 764.979 232 764.999C231.67 765.989 231.34 766.979 231 767.999C221.76 768.329 212.52 768.659 203 768.999C202.67 768.009 202.34 767.019 202 765.999C208.326 764.86 214.523 764.885 220.938 764.937Z" fill="#D9D7D4"/>
<path d="M55.375 815.874C56.2064 815.883 57.0379 815.892 57.8945 815.902C59.9298 815.925 61.9649 815.961 64 815.999C64 816.659 64 817.319 64 817.999C64.99 818.329 65.98 818.659 67 818.999C61.8987 819.833 56.9783 820.182 51.8125 820.187C51.1145 820.199 50.4164 820.211 49.6973 820.224C45.9618 820.235 43.1697 820.071 40 817.999C45.2496 815.842 49.8081 815.759 55.375 815.874Z" fill="#E4E3E1"/>
<path d="M159 777.999C159.33 778.659 159.66 779.319 160 779.999C158.808 780.276 157.615 780.553 156.387 780.839C154.82 781.205 153.254 781.571 151.688 781.937C150.902 782.119 150.116 782.301 149.307 782.489C148.171 782.755 148.171 782.755 147.012 783.026C146.315 783.189 145.619 783.351 144.901 783.518C143.247 783.937 141.619 784.459 140 784.999C139.34 784.339 138.68 783.679 138 782.999C138 782.339 138 781.679 138 780.999C140.936 780.302 143.873 779.616 146.812 778.937C147.646 778.737 148.479 778.538 149.338 778.333C150.14 778.149 150.943 777.966 151.77 777.776C152.877 777.517 152.877 777.517 154.007 777.253C156 776.999 156 776.999 159 777.999Z" fill="#E5E4E2"/>
<path d="M330 801C331 804 331 804 330.18 806.305C327.624 811.339 325.302 815.313 321 819C320.34 818.67 319.68 818.34 319 818C319.25 815.625 319.25 815.625 320 813C320.62 812.71 321.24 812.42 321.879 812.121C324.615 810.675 325.297 809.17 326.688 806.438C328.96 802.04 328.96 802.04 330 801Z" fill="#ECECEA"/>
<path d="M640 477C641.147 480.44 640.871 481.003 639.566 484.23C639.247 485.033 638.928 485.835 638.6 486.662C638.257 487.495 637.915 488.329 637.562 489.188C637.224 490.032 636.886 490.877 636.537 491.748C635.7 493.836 634.854 495.919 634 498C633.34 498 632.68 498 632 498C632.469 492.61 633.959 488.214 636.062 483.234C637.076 480.897 637.076 480.897 638 478C638.66 477.67 639.32 477.34 640 477Z" fill="#EFEEEC"/>
<path d="M405 411C407.64 411 410.28 411 413 411C413 411.66 413 412.32 413 413C413.548 412.916 414.096 412.832 414.66 412.746C422.559 411.731 430.095 412.315 438 413C438 413.33 438 413.66 438 414C410.159 415.875 410.159 415.875 406.219 412.453C405.817 411.974 405.414 411.494 405 411Z" fill="#F1EFEB"/>
<path d="M556 655C556.99 655 557.98 655 559 655C560.98 661.27 562.96 667.54 565 674C564.01 674.33 563.02 674.66 562 675C561.494 673.252 560.995 671.501 560.5 669.75C560.222 668.775 559.943 667.801 559.656 666.797C559 664 559 664 559 660C558.34 660 557.68 660 557 660C556.67 658.35 556.34 656.7 556 655Z" fill="#EEEDEB"/>
<path d="M222 468C223.98 468.99 223.98 468.99 226 470C226 470.99 226 471.98 226 473C226.66 473 227.32 473 228 473C228.66 475.64 229.32 478.28 230 481C230.66 481 231.32 481 232 481C232.66 483.31 233.32 485.62 234 488C233.34 488.33 232.68 488.66 232 489C230.33 485.689 228.665 482.376 227 479.062C226.523 478.117 226.046 477.171 225.555 476.197C225.104 475.298 224.652 474.399 224.188 473.473C223.769 472.64 223.35 471.807 222.918 470.949C222 469 222 469 222 468Z" fill="#E8E7E5"/>
<path d="M369 405C371.64 405.33 374.28 405.66 377 406C377 406.66 377 407.32 377 408C378.052 407.773 379.104 407.546 380.188 407.312C384.382 406.969 385.757 407.445 389 410C389 410.33 389 410.66 389 411C374.577 409.856 374.577 409.856 370 408C369.67 407.01 369.34 406.02 369 405Z" fill="#EBEAE8"/>
<path d="M677 314C681 315.333 685 316.667 689 318C688.67 318.99 688.34 319.98 688 321C686.02 320.34 684.04 319.68 682 319C682.33 320.32 682.66 321.64 683 323C682.01 323.495 682.01 323.495 681 324C680.328 322.711 679.663 321.419 679 320.125C678.629 319.406 678.257 318.686 677.875 317.945C677 316 677 316 677 314Z" fill="#EDEBE9"/>
<path d="M337 212C337.037 212.84 337.037 212.84 337.076 213.697C337.192 216.235 337.315 218.774 337.437 221.312C337.477 222.194 337.516 223.075 337.556 223.982C337.598 224.83 337.64 225.678 337.683 226.551C337.738 227.721 337.738 227.721 337.795 228.915C337.941 231.193 337.941 231.193 339 234C335.125 232.25 335.125 232.25 334 230C333.928 227.116 333.907 224.258 333.937 221.375C333.942 220.573 333.946 219.771 333.951 218.945C333.963 216.964 333.981 214.982 334 213C336 212 336 212 337 212Z" fill="#D2D0CF"/>
<path d="M544 576C544.99 576.33 545.98 576.66 547 577C546.01 577.495 546.01 577.495 545 578C544.958 580.333 544.96 582.667 545 585C545.33 585.33 545.66 585.66 546 586C546.041 588.333 546.043 590.667 546 593C545.34 593 544.68 593 544 593C541.471 582.422 541.471 582.422 543 577C543.33 576.67 543.66 576.34 544 576Z" fill="#E5E3E2"/>
<path d="M190 327C189.67 327.99 189.34 328.98 189 330C187.701 329.979 186.401 329.959 185.062 329.938C183.708 329.916 182.352 329.929 181 330C180.67 330.33 180.34 330.66 180 331C178.481 331.072 176.958 331.084 175.438 331.062C174.611 331.053 173.785 331.044 172.934 331.035C172.296 331.024 171.657 331.012 171 331C170.67 330.01 170.34 329.02 170 328C172.583 327.832 175.167 327.665 177.75 327.5C178.48 327.452 179.209 327.405 179.961 327.355C183.318 327.142 186.634 327 190 327Z" fill="#E3E1E0"/>
<path d="M442 531.001C442.33 531.991 442.66 532.981 443 534.001C442.078 533.966 442.078 533.966 441.137 533.931C440.328 533.913 439.52 533.895 438.688 533.876C437.487 533.841 437.487 533.841 436.262 533.806C433.716 533.843 433.716 533.843 431 536.001C427.812 535.626 427.812 535.626 425 535.001C425.33 534.011 425.66 533.021 426 532.001C431.371 531.319 436.585 530.886 442 531.001Z" fill="#E7E5E3"/>
<path d="M160 363C160 363.66 160 364.32 160 365C157.21 366.004 154.418 367.003 151.625 368C150.434 368.429 150.434 368.429 149.219 368.867C148.078 369.273 148.078 369.273 146.914 369.688C146.212 369.939 145.511 370.19 144.788 370.449C143 371 143 371 141 371C140.67 370.01 140.34 369.02 140 368C141.361 367.814 141.361 367.814 142.75 367.625C145.672 367.063 147.424 366.369 150 365C153.669 363.624 156.032 363 160 363Z" fill="#F1F0EE"/>
<path d="M616 461C616.99 461.66 617.98 462.32 619 463C618.077 472.077 618.077 472.077 616 476C615.01 476.66 614.02 477.32 613 478C613.99 472.39 614.98 466.78 616 461Z" fill="#E8E7E5"/>
<path d="M619 419C619.33 419 619.66 419 620 419C620 424.61 620 430.22 620 436C620.66 436 621.32 436 622 436C622.544 439.058 623 441.888 623 445C622.01 446.32 621.02 447.64 620 449C620 445.37 620 441.74 620 438C619.67 438 619.34 438 619 438C619 431.73 619 425.46 619 419Z" fill="#E2E1DE"/>
<path d="M206 628C206.99 628 207.98 628 209 628C209.67 630.124 210.336 632.249 211 634.375C211.371 635.558 211.743 636.742 212.125 637.961C213 641 213 641 213 643C212.34 643 211.68 643 211 643C210.163 640.877 209.33 638.751 208.5 636.625C207.804 634.85 207.804 634.85 207.094 633.039C206 630 206 630 206 628Z" fill="#EEEDEB"/>
<path d="M311 620C313.004 623.006 314.031 625.592 315.188 629C315.552 630.052 315.917 631.104 316.293 632.188C317 635 317 635 316 638C315.34 638 314.68 638 314 638C312.548 633.463 311.765 629.819 312 625C311.34 624.67 310.68 624.34 310 624C310.33 622.68 310.66 621.36 311 620Z" fill="#EDECEA"/>
<path d="M544 614C545.992 616.988 547.029 619.554 548.188 622.938C548.552 623.978 548.917 625.018 549.293 626.09C549.989 628.955 550.025 630.29 549 633C547.147 630.221 546.353 628.279 545.438 625.125C545.189 624.282 544.94 623.439 544.684 622.57C544.014 620.051 543.4 617.577 543 615C543.33 614.67 543.66 614.34 544 614Z" fill="#EFEEEC"/>
<path d="M188 399C192.714 399.479 196.666 399.968 201 402C201 402.66 201 403.32 201 404C198.333 403.333 195.667 402.667 193 402C193.33 403.65 193.66 405.3 194 407C192.125 406.375 192.125 406.375 190 405C188.75 401.875 188.75 401.875 188 399Z" fill="#ECEBE9"/>
<path d="M433 369.001C429.735 370.884 426.719 371.493 423 372.001C423 371.341 423 370.681 423 370.001C419.7 369.671 416.4 369.341 413 369.001C413 368.671 413 368.341 413 368.001C419.389 366.084 426.621 367.512 433 369.001Z" fill="#EBEAE8"/>
<path d="M91 814.999C91 815.329 91 815.659 91 815.999C82.09 816.989 82.09 816.989 73 817.999C73 818.329 73 818.659 73 818.999C71.02 818.999 69.04 818.999 67 818.999C67 818.009 67 817.019 67 815.999C75.0166 814.874 82.9214 814.904 91 814.999Z" fill="#F0EEE9"/>
<path d="M470 631C471.32 631.33 472.64 631.66 474 632C474.33 634.97 474.66 637.94 475 641C473.02 641.99 473.02 641.99 471 643C471.33 640.36 471.66 637.72 472 635C470.35 635.33 468.7 635.66 467 636C467.495 635.361 467.99 634.721 468.5 634.062C470.098 632.29 470.098 632.29 470 631Z" fill="#EAE8E7"/>
<path d="M576 389C572.93 391.047 570.309 391.998 566.812 393.125C565.726 393.479 564.639 393.832 563.52 394.196C562.688 394.461 561.857 394.727 561 395C561 394.01 561 393.02 561 392C562.745 391.3 564.496 390.615 566.25 389.938C567.225 389.555 568.199 389.172 569.203 388.778C572.04 387.989 573.294 387.976 576 389Z" fill="#F0EEEC"/>
<path d="M590 745C592.131 747.81 594.194 750.653 596.188 753.562C596.717 754.327 597.247 755.091 597.793 755.879C599 758 599 758 599 761C596.5 759.188 596.5 759.188 594 757C594 756.01 594 755.02 594 754C593.01 753.67 592.02 753.34 591 753C589.812 749.438 589.812 749.438 589 746C589.33 745.67 589.66 745.34 590 745Z" fill="#EBEAE9"/>
<path d="M64 383C73.9381 384.805 73.9381 384.805 77 388C77 388.66 77 389.32 77 390C75.394 389.548 73.7903 389.088 72.1875 388.625C71.2942 388.37 70.4009 388.115 69.4805 387.852C67 387 67 387 64 385C64 384.34 64 383.68 64 383Z" fill="#EBEAE8"/>
<path d="M578 362C577.67 362.99 577.34 363.98 577 365C572.632 365.699 568.426 366.309 564 366C563.34 365.34 562.68 364.68 562 364C563.916 363.663 565.833 363.33 567.75 363C568.817 362.814 569.885 362.629 570.984 362.438C574 362 574 362 578 362Z" fill="#E1E0DF"/>
<path d="M719 336.999C715.837 339.108 712.865 340.288 709.312 341.624C708.133 342.07 706.954 342.516 705.738 342.976C704.835 343.314 703.931 343.651 703 343.999C704.253 340.24 705.292 339.989 708.75 338.249C709.611 337.801 710.472 337.352 711.359 336.89C714.373 335.874 715.988 336.111 719 336.999Z" fill="#EDECEB"/>
<path d="M242 178C242 181 242 181 242 181V178ZM239 180C239.66 180.33 240.32 180.66 241 181C238.685 184.721 236.714 187.612 233 190C232.34 189.34 231.68 188.68 231 188C233.64 185.36 236.28 182.72 239 180Z" fill="#F1F0EE"/>
<path d="M406 20C406.33 20 406.66 20 407 20C407.33 21.65 407.66 23.3 408 25C408.33 25 408.66 25 409 25C409.66 29.62 410.32 34.24 411 39C410.34 39.33 409.68 39.66 409 40C408.867 39.2897 408.734 38.5795 408.597 37.8477C408.421 36.9286 408.244 36.0095 408.062 35.0625C407.888 34.146 407.714 33.2295 407.535 32.2852C407.223 30.0471 407.223 30.0471 406 29C405.928 27.4807 405.916 25.9583 405.937 24.4375C405.946 23.6112 405.955 22.7849 405.965 21.9336C405.976 21.2955 405.988 20.6574 406 20Z" fill="#ECEBE9"/>
<path d="M237 696C240 697 240 697 241.125 698.812C242.578 702.446 243.255 706.167 244 710C241.248 708.334 240.133 707.344 238.953 704.301C238.721 703.315 238.489 702.329 238.25 701.312C238.008 700.319 237.765 699.325 237.516 698.301C237.345 697.542 237.175 696.782 237 696Z" fill="#EEECEA"/>
<path d="M483 640C483.99 640.33 484.98 640.66 486 641C486.949 643.504 486.949 643.504 487.688 646.562C487.939 647.574 488.19 648.586 488.449 649.629C488.631 650.411 488.813 651.194 489 652C488.01 652 487.02 652 486 652C485.494 650.564 484.996 649.126 484.5 647.688C484.222 646.887 483.943 646.086 483.656 645.262C483 643 483 643 483 640Z" fill="#F1F0ED"/>
<path d="M620 372C620.33 372.66 620.66 373.32 621 374C620.34 373.67 619.68 373.34 619 373C619.33 372.67 619.66 372.34 620 372ZM617 374C617.99 374.33 618.98 374.66 620 375C619.835 375.681 619.67 376.361 619.5 377.062C618.929 380.416 618.933 383.604 619 387C618.01 386.34 617.02 385.68 616 385C615.672 382.906 615.672 382.906 615.75 380.5C615.765 379.706 615.781 378.912 615.797 378.094C616 376 616 376 617 374Z" fill="#EAE9E7"/>
<path d="M183 364.999C182.072 365.432 181.144 365.865 180.188 366.312C177.052 367.723 177.052 367.723 175.5 369.749C175.005 370.162 174.51 370.574 174 370.999C170.812 370.687 170.812 370.687 168 369.999C168 369.339 168 368.679 168 367.999C170.122 367.303 172.248 366.617 174.375 365.937C176.15 365.362 176.15 365.362 177.961 364.777C181 363.999 181 363.999 183 364.999Z" fill="#E8E7E5"/>
<path d="M479 625C479.99 625.33 480.98 625.66 482 626C482.66 629.63 483.32 633.26 484 637C483.01 637 482.02 637 481 637C479.862 632.734 479 629.435 479 625Z" fill="#F1F0EE"/>
<path d="M174 359C173 361 173 361 170.496 361.852C168.982 362.235 168.982 362.235 167.438 362.625C166.426 362.885 165.414 363.146 164.371 363.414C163.589 363.608 162.806 363.801 162 364C161.67 363.01 161.34 362.02 161 361C162.412 360.466 163.83 359.948 165.25 359.438C166.039 359.148 166.828 358.858 167.641 358.559C170.191 357.955 171.553 358.153 174 359Z" fill="#F0EEEC"/>
<path d="M35 795C35.33 795.66 35.66 796.32 36 797C26.59 799.297 26.59 799.297 22 799C25.9484 795.659 29.8819 793.294 35 795Z" fill="#EAEAE8"/>
<path d="M212 359C217.656 358.435 221.226 360.286 226 363C222.596 364.138 220.225 363.84 216.75 363.063C215.858 362.868 214.966 362.674 214.047 362.473C213.371 362.317 212.696 362.161 212 362C212 361.01 212 360.02 212 359Z" fill="#E5E4E2"/>
<path d="M318 816C318.33 816.66 318.66 817.32 319 818C319.66 818.33 320.32 818.66 321 819C318.161 820.892 316.065 822.109 312.598 821.754C310.369 821.243 308.185 820.675 306 820C306 819.67 306 819.34 306 819C311.94 818.505 311.94 818.505 318 818C318 817.34 318 816.68 318 816Z" fill="#F2F1ED"/>
<path d="M493 661C495 664 495 664 495 666C496.32 666.66 497.64 667.32 499 668C498.67 668.66 498.34 669.32 498 670C498.99 670.33 499.98 670.66 501 671C500.67 671.99 500.34 672.98 500 674C493.058 667.24 493.058 667.24 492.875 663.312C492.916 662.549 492.957 661.786 493 661Z" fill="#F0EFED"/>
<path d="M418 619C418.33 619.66 418.66 620.32 419 621C419.66 621.33 420.32 621.66 421 622C417.04 623.65 413.08 625.3 409 627C411.278 622.444 412.53 621.997 417 620C417.33 619.67 417.66 619.34 418 619Z" fill="#ECEBE9"/>
<path d="M337 515C337.33 515 337.66 515 338 515C339.332 526.522 339.332 526.522 338 532C337.67 532 337.34 532 337 532C336.805 529.542 336.619 527.084 336.437 524.625C336.381 523.926 336.325 523.228 336.267 522.508C335.886 517.227 335.886 517.227 337 515Z" fill="#E9E8E6"/>
<path d="M635 791C638.337 792.173 640.774 793.189 643 796C643 796.66 643 797.32 643 798C640.028 796.875 637.666 795.777 635 794C635 793.01 635 792.02 635 791ZM633 793C633.66 793.66 634.32 794.32 635 795C634.34 795 633.68 795 633 795C633 794.34 633 793.68 633 793Z" fill="#EFEEEA"/>
<path d="M574 706C574.66 706 575.32 706 576 706C576.99 709.3 577.98 712.6 579 716C578.01 716 577.02 716 576 716C574.397 712.492 573.78 709.856 574 706Z" fill="#ECECEA"/>
<path d="M235 683C237.421 685.421 237.529 686.801 238.125 690.125C238.293 691.035 238.46 691.945 238.633 692.883C238.815 693.931 238.815 693.931 239 695C238.01 695 237.02 695 236 695C235.636 693.565 235.284 692.127 234.938 690.688C234.74 689.887 234.543 689.086 234.34 688.262C234 686 234 686 235 683Z" fill="#EFEEEB"/>
<path d="M465 602C462.772 604.229 461.342 604.693 458.375 605.625C457.558 605.886 456.74 606.146 455.898 606.414C455.272 606.608 454.645 606.801 454 607C454 606.01 454 605.02 454 604C458.103 601.615 460.386 600.508 465 602Z" fill="#F1F0ED"/>
<path d="M487 593.999C484.651 596.349 483.043 596.731 479.875 597.624C478.965 597.885 478.055 598.145 477.117 598.414C476.419 598.607 475.72 598.8 475 598.999C474.67 598.009 474.34 597.019 474 595.999C474.866 595.814 474.866 595.814 475.75 595.624C478.023 595.095 478.023 595.095 479.938 593.874C482.626 592.734 484.239 593.232 487 593.999Z" fill="#EDECEA"/>
<path d="M100 384C103.3 384 106.6 384 110 384C110 384.33 110 384.66 110 385C111.65 385.33 113.3 385.66 115 386C115 386.33 115 386.66 115 387C110.05 387 105.1 387 100 387C100 386.01 100 385.02 100 384Z" fill="#F0EEEA"/>
<path d="M645 300C645.99 300 646.98 300 648 300C647.481 304.379 646.944 308.688 646 313C643.699 309.548 643.862 308.765 644.375 304.812C644.486 303.911 644.597 303.01 644.711 302.082C644.807 301.395 644.902 300.708 645 300Z" fill="#F0EEEC"/>
<path d="M617 246C617.99 246.33 618.98 246.66 620 247C620.054 248.604 620.093 250.208 620.125 251.812C620.148 252.706 620.171 253.599 620.195 254.52C620 257 620 257 618 260C617.67 255.38 617.34 250.76 617 246Z" fill="#EAE9E7"/>
<path d="M649 801C652.791 802.45 656.387 804.152 660 806C660 806.99 660 807.98 660 809C657.525 808.01 657.525 808.01 655 807C655 806.34 655 805.68 655 805C652.03 804.505 652.03 804.505 649 804C649 803.01 649 802.02 649 801Z" fill="#F2F1EE"/>
<path d="M186 770C186 770.99 186 771.98 186 773C178.571 775.429 178.571 775.429 175 774C176 772 176 772 177.777 771.367C178.49 771.205 179.203 771.042 179.938 770.875C180.648 770.707 181.358 770.54 182.09 770.367C184 770 184 770 186 770Z" fill="#EBEBE8"/>
<path d="M345 582C345.082 583.603 345.14 585.208 345.188 586.812C345.223 587.706 345.258 588.599 345.293 589.52C344.951 592.416 344.246 593.226 342 595C341.077 590.692 340.903 587.291 342 583C344 582 344 582 345 582Z" fill="#EFECEA"/>
<path d="M185 272C185.66 272.33 186.32 272.66 187 273C186.34 276.96 185.68 280.92 185 285C184.34 285 183.68 285 183 285C182.946 283.584 182.907 282.167 182.875 280.75C182.852 279.961 182.829 279.172 182.805 278.359C183.017 275.793 183.713 274.208 185 272Z" fill="#CDCDCE"/>
<path d="M321 179C324.403 180.059 327.014 181.009 330 183C330.188 186.125 330.188 186.125 330 189C329.938 188.381 329.876 187.762 329.812 187.125C329.186 184.753 329.186 184.753 326.625 183.875C325.759 183.586 324.892 183.298 324 183C323.01 182.34 322.02 181.68 321 181C321 180.34 321 179.68 321 179Z" fill="#EEEEEC"/>
<path d="M527 559C527.33 559 527.66 559 528 559C528.66 563.29 529.32 567.58 530 572C529.01 572 528.02 572 527 572C526.803 570.585 526.618 569.168 526.437 567.75C526.333 566.961 526.228 566.172 526.121 565.359C525.999 562.995 526.303 561.249 527 559Z" fill="#E2E1DF"/>
<path d="M641 228C642.903 230.855 643.462 232.419 644.125 235.688C644.293 236.496 644.46 237.304 644.633 238.137C644.754 238.752 644.875 239.366 645 240C644.34 240 643.68 240 643 240C640.948 236.552 639.937 234.683 640.313 230.625C640.539 229.759 640.766 228.892 641 228Z" fill="#E3E2E2"/>
<path d="M171 816C174 817 177 818 180 819C180 819.66 180 820.32 180 821C173.6 821.369 173.6 821.369 170.562 819.5C170.047 819.005 169.531 818.51 169 818C169.66 817.34 170.32 816.68 171 816Z" fill="#E3E1DD"/>
<path d="M398 629.999C397 631.999 397 631.999 395.004 632.703C394.198 632.883 393.393 633.063 392.562 633.249C391.759 633.44 390.956 633.631 390.129 633.828C389.075 633.913 389.075 633.913 388 633.999C387.34 633.339 386.68 632.679 386 631.999C390.177 630.408 393.532 629.787 398 629.999Z" fill="#EEEDEB"/>
<path d="M344 571C344.99 571 345.98 571 347 571C346.67 573.97 346.34 576.94 346 580C345.01 580.33 344.02 580.66 343 581C343.33 577.7 343.66 574.4 344 571Z" fill="#EBEAE8"/>
<path d="M185 277C185.33 277 185.66 277 186 277C186.061 277.82 186.121 278.64 186.184 279.484C186.267 280.562 186.351 281.64 186.437 282.75C186.559 284.351 186.559 284.351 186.684 285.984C186.941 288.437 187.318 290.639 188 293C187.34 293 186.68 293 186 293C184.133 289.103 183.86 286.459 184.375 282.188C184.486 281.212 184.597 280.236 184.711 279.23C184.806 278.494 184.902 277.758 185 277Z" fill="#EDECE9"/>
<path d="M16.625 815.938C17.8509 815.951 17.8509 815.951 19.1016 815.965C20.0413 815.983 20.0413 815.983 21 816C21 816.66 21 817.32 21 818C17.9111 820.06 17.2906 820.239 13.8125 820.125C11.9253 820.064 11.9253 820.064 10 820C10 819.01 10 818.02 10 817C12.4055 815.798 13.95 815.9 16.625 815.938Z" fill="#E2E0DD"/>
<path d="M271 169.999C270.67 170.989 270.34 171.979 270 172.999C266.37 172.669 262.74 172.339 259 171.999C259 171.669 259 171.339 259 170.999C263.053 170.017 266.839 169.917 271 169.999Z" fill="#E7E6E4"/>
<path d="M208 583C208.99 583.33 209.98 583.66 211 584C211 585.98 211 587.96 211 590C210.34 590 209.68 590 209 590C208.67 591.32 208.34 592.64 208 594C206.875 586.375 206.875 586.375 208 583Z" fill="#ECEBE8"/>
<path d="M336 461C336.33 461 336.66 461 337 461C338.102 465.409 338.077 469.484 338 474C337.01 474 336.02 474 335 474C334.875 469.25 334.875 469.25 336 467C336.04 465 336.043 463 336 461Z" fill="#EBEAE6"/>
<path d="M195 406C197 408 197 408 197.063 410.938C197.042 411.948 197.021 412.959 197 414C197.33 414.99 197.66 415.98 198 417C197.01 417.495 197.01 417.495 196 418C194.586 414.2 193.651 411.071 194 407C194.33 406.67 194.66 406.34 195 406Z" fill="#EEECE9"/>
<path d="M203 326C203.33 326.66 203.66 327.32 204 328C201.69 327.67 199.38 327.34 197 327C197 327.66 197 328.32 197 329C195.35 329 193.7 329 192 329C194 326 194 326 196.375 325.25C198.957 325.004 200.597 325.056 203 326Z" fill="#E8E6E4"/>
<path d="M310 209C311.192 213.766 310.342 214.879 308 219C307.34 219 306.68 219 306 219C306 219.66 306 220.32 306 221C305.34 220.67 304.68 220.34 304 220C305.98 216.37 307.96 212.74 310 209Z" fill="#EEEDEC"/>
<path d="M322 812C322.66 812.66 323.32 813.32 324 814C323.75 816.062 323.75 816.062 323 818C322.01 818.495 322.01 818.495 321 819C320.34 818.67 319.68 818.34 319 818C319.375 815.562 319.375 815.562 320 813C320.66 812.67 321.32 812.34 322 812Z" fill="#E9E5E1"/>
<path d="M138 781C140.97 781 143.94 781 147 781C147 781.66 147 782.32 147 783C144.69 783.66 142.38 784.32 140 785C139.34 784.34 138.68 783.68 138 783C138 782.34 138 781.68 138 781Z" fill="#ECEAE7"/>
<path d="M224 543C224.688 544.75 224.688 544.75 225 547C223.688 549.25 223.688 549.25 222 551C221.34 551 220.68 551 220 551C220.599 548.648 221.269 546.314 222 544C222.66 543.67 223.32 543.34 224 543Z" fill="#F0EFEC"/>
<path d="M577 717C577.99 717 578.98 717 580 717C580.99 719.97 581.98 722.94 583 726C582.01 726.33 581.02 726.66 580 727C579.67 724.36 579.34 721.72 579 719C578.34 719 577.68 719 577 719C577 718.34 577 717.68 577 717Z" fill="#EBEAE8"/>
<path d="M358.25 637.875C360.106 637.937 360.106 637.937 362 638C361.67 638.99 361.34 639.98 361 641C357.37 640.67 353.74 640.34 350 640C353.611 638.194 354.545 637.751 358.25 637.875Z" fill="#F0EEEA"/>
<path d="M707 326C709.31 326.66 711.62 327.32 714 328C713.67 328.99 713.34 329.98 713 331C710.36 330.01 707.72 329.02 705 328C705.66 327.34 706.32 326.68 707 326Z" fill="#F0EFEC"/>
<path d="M251 305C251.99 305.99 252.98 306.98 254 308C252.68 308.99 251.36 309.98 250 311C249.34 310.34 248.68 309.68 248 309C248.99 307.68 249.98 306.36 251 305Z" fill="#EDECE9"/>
<path d="M264 282C264.66 282.66 265.32 283.32 266 284C264.814 287.375 263.724 289.647 261 292C260.34 291.67 259.68 291.34 259 291C260.65 288.03 262.3 285.06 264 282Z" fill="#F0F0EE"/>
<path d="M500 106C507.571 107.857 507.571 107.857 510 111C509.67 111.66 509.34 112.32 509 113C506.03 111.35 503.06 109.7 500 108C500 107.34 500 106.68 500 106Z" fill="#E7E7E7"/>
<path d="M561 786C561.33 786 561.66 786 562 786C562 789.96 562 793.92 562 798C561.01 798 560.02 798 559 798C559.66 794.04 560.32 790.08 561 786Z" fill="#E1E1DF"/>
<path d="M582 727C584 728 584 728 585.125 731.062C585.413 732.032 585.702 733.001 586 734C585.01 734.33 584.02 734.66 583 735C581.57 732.646 580.913 731.52 581.375 728.75C581.581 728.173 581.787 727.595 582 727Z" fill="#EDECE9"/>
<path d="M325 669C327.12 672.534 327.532 675.944 328 680C327.01 680 326.02 680 325 680C324.805 678.543 324.619 677.084 324.437 675.625C324.333 674.813 324.228 674.001 324.121 673.164C324 671 324 671 325 669Z" fill="#E9E9E8"/>
<path d="M359 352C361.64 352.66 364.28 353.32 367 354C367 354.99 367 355.98 367 357C364.333 356.333 361.667 355.667 359 355C359 354.01 359 353.02 359 352Z" fill="#E9E8E7"/>
<path d="M259 343C259.66 343.33 260.32 343.66 261 344C260.812 345.812 260.812 345.812 260 348C257.438 349.75 257.438 349.75 255 351C254.67 350.01 254.34 349.02 254 348C255.65 347.67 257.3 347.34 259 347C259 345.68 259 344.36 259 343Z" fill="#EBEBE9"/>
<path d="M80 333C78.75 334.5 78.75 334.5 77 336C75.68 336 74.36 336 73 336C73 335.01 73 334.02 73 333C76.1335 331.956 76.9897 332.066 80 333Z" fill="#EFEDEB"/>
<path d="M643 311C643.66 311.66 644.32 312.32 645 313C644.67 313.99 644.34 314.98 644 316C640.04 316 636.08 316 632 316C636 314 636 314 639.188 313.5C640.58 313.252 640.58 313.252 642 313C642.33 312.34 642.66 311.68 643 311Z" fill="#F0EDE8"/>
<path d="M335 260C336.32 260.33 337.64 260.66 339 261C339 263.31 339 265.62 339 268C338.01 267.67 337.02 267.34 336 267C335.67 264.69 335.34 262.38 335 260Z" fill="#EDECEA"/>
<path d="M554 645C556 646 556 646 556.633 647.848C556.795 648.579 556.958 649.309 557.125 650.062C557.292 650.796 557.46 651.529 557.633 652.285C557.754 652.851 557.875 653.417 558 654C557.34 654 556.68 654 556 654C553.71 650.565 553.821 649.015 554 645Z" fill="#E8E7E6"/>
<path d="M481 603C481.66 603 482.32 603 483 603C483.33 605.64 483.66 608.28 484 611C482.68 610.67 481.36 610.34 480 610C480.33 607.69 480.66 605.38 481 603Z" fill="#E9E9E6"/>
<path d="M623 514C623.66 514.33 624.32 514.66 625 515C623.35 517.64 621.7 520.28 620 523C619 520 619 520 619.812 517.375C621 515 621 515 623 514Z" fill="#EAEAE8"/>
<path d="M217 458C218.875 458.125 218.875 458.125 221 459C222.25 462.062 222.25 462.062 223 465C222.01 465 221.02 465 220 465C219.01 462.69 218.02 460.38 217 458Z" fill="#F0EDEB"/>
<path d="M619 360C619.66 360.33 620.32 360.66 621 361C619.65 365.419 617.739 367.343 614 370C614.309 369.402 614.619 368.804 614.938 368.188C616.102 365.91 616.102 365.91 617 363C617.66 363 618.32 363 619 363C619 362.01 619 361.02 619 360Z" fill="#EEEEED"/>
<path d="M222 210C222.66 210.33 223.32 210.66 224 211C224 212.32 224 213.64 224 215C223.34 215 222.68 215 222 215C222.33 216.32 222.66 217.64 223 219C222.01 219 221.02 219 220 219C220.66 216.03 221.32 213.06 222 210Z" fill="#ECECEA"/>
<path d="M319 649C319.66 649 320.32 649 321 649C321.66 651.97 322.32 654.94 323 658C322.34 658 321.68 658 321 658C321 657.01 321 656.02 321 655C320.34 655 319.68 655 319 655C319 653.02 319 651.04 319 649Z" fill="#ECEBEA"/>
<path d="M579 542C579.66 542.66 580.32 543.32 581 544C580.34 545.32 579.68 546.64 579 548C578.01 548 577.02 548 576 548C576.66 547.34 577.32 546.68 578 546C578 545.01 578 544.02 578 543C578.33 542.67 578.66 542.34 579 542Z" fill="#EBEAE8"/>
<path d="M402 536.999C401.67 537.659 401.34 538.319 401 538.999C398.125 539.124 398.125 539.124 395 538.999C394.34 538.339 393.68 537.679 393 536.999C396.378 536.155 398.675 535.891 402 536.999Z" fill="#E2E2E1"/>
<path d="M236 510C236.66 510.33 237.32 510.66 238 511C237.67 513.31 237.34 515.62 237 518C236.01 518 235.02 518 234 518C234.66 515.36 235.32 512.72 236 510Z" fill="#EFEEEB"/>
<path d="M134 371C133.67 371.99 133.34 372.98 133 374C131.02 374.33 129.04 374.66 127 375C127 374.01 127 373.02 127 372C129.463 370.768 131.28 370.928 134 371Z" fill="#EFEEEB"/>
<path d="M677 314C679.31 314.66 681.62 315.32 684 316C683.01 316.33 682.02 316.66 681 317C680.67 317.99 680.34 318.98 680 320C677 316.25 677 316.25 677 314Z" fill="#D8D7D8"/>
<path d="M249 729C249.99 729 250.98 729 252 729C253.062 730.812 253.062 730.812 254 733C253.67 733.99 253.34 734.98 253 736C252.34 736 251.68 736 251 736C250.34 733.69 249.68 731.38 249 729Z" fill="#EBEBE8"/>
<path d="M453 607C450.334 608.777 447.972 609.876 445 611C445.312 609.063 445.312 609.063 446 607C449.133 605.956 449.99 606.066 453 607Z" fill="#EDECEA"/>
<path d="M197 419C200 420 200 420 202 423C202.125 425.688 202.125 425.688 202 428C199.675 425.147 198.249 422.459 197 419Z" fill="#EBEBE9"/>
<path d="M645 402C645.33 402 645.66 402 646 402C646.33 404.97 646.66 407.94 647 411C646.01 410.67 645.02 410.34 644 410C643.875 404.25 643.875 404.25 645 402Z" fill="#EBEAE8"/>
<path d="M527 406C524.082 407.945 522.375 408.453 519 409C519 408.01 519 407.02 519 406C521.862 404.569 523.934 405.4 527 406Z" fill="#F1F0EE"/>
<path d="M258 172C257.67 172.99 257.34 173.98 257 175C255.35 175.33 253.7 175.66 252 176C252 175.01 252 174.02 252 173C255 172 255 172 258 172Z" fill="#EBEBE8"/>
<path d="M678 818C677.34 818.474 676.68 818.948 676 819.437C675.01 820.211 675.01 820.211 674 821C674 821.33 674 821.66 674 822C671.876 822.08 669.75 822.139 667.625 822.187C666.442 822.222 665.258 822.257 664.039 822.293C662.535 822.148 662.535 822.148 661 822C660.34 821.01 659.68 820.02 659 819C661.229 818.831 663.458 818.665 665.688 818.5C667.55 818.36 667.55 818.36 669.449 818.218C672.315 818.042 675.131 817.956 678 818Z" fill="#DBD9D5"/>
<path d="M201 818C204.63 818.33 208.26 818.66 212 819C212 819.66 212 820.32 212 821C213.32 821.33 214.64 821.66 216 822C208.41 822 200.82 822 193 822C193 821.67 193 821.34 193 821C194.134 820.876 195.269 820.752 196.438 820.625C197.613 820.419 198.789 820.213 200 820C200.33 819.34 200.66 818.68 201 818Z" fill="#EDEBE9"/>
</svg>
