<svg xmlns="http://www.w3.org/2000/svg" fill="none" viewBox="0 0 726 823"><path fill="#F9F7F2" d="M328.473 181.504C330 183 330 183 330.5 185.875c-.598 3.741-1.935 5.399-4.5 8.125l1.836.738c2.597 1.514 3.384 2.816 4.789 5.449l1.227 2.231c2.446 5.5 3.305 10.401 3.323 16.345.051 9.789 1.819 16.255 7.825 24.237 3.92 5.321 3.92 5.321 4.313 8.625-2.224 4.025-6.116 4.779-10.313 6.375v10l-5 2a4060.41 4060.41 0 0 1-.078 3.832c-.056 1.66-.113 3.32-.172 4.98l-.043 2.526c-.246 6.147-.246 6.147-2.504 8.674-4.654 2.087-8.952 2.171-14.015 2.175l-2.08.037c-4.733.014-8.612-.738-13.108-2.224l-.515 1.582-.735 2.23-.816 2.489a122.433 122.433 0 0 1-2.024 5.429c-3.334 8.41-3.334 8.41-2.91 17.27 2.343 4.259 4.958 7.305 9 10 2.406.304 2.406.304 5.139.26l3.243.021 3.575-.007 3.789.016c3.478.014 6.955.016 10.433.015 3.749.002 7.498.015 11.247.026 8.205.023 16.411.031 24.616.036 5.129.004 10.259.01 15.388.017 14.216.02 28.431.036 42.646.039l2.759.001 5.536.001h2.776l2.779.001c14.824.003 29.648.03 44.472.068 15.237.038 30.474.057 45.711.058 8.548 0 17.095.009 25.643.038 7.288.024 14.575.031 21.863.016 3.711-.007 7.422-.006 11.133.017 14.541.085 28.095-.187 42.074-4.551 4.328-1.27 8.695-1.727 13.178-1.072a231.517 231.517 0 0 1 5 4c2.924.343 5.453.469 8.364.39l2.4-.017c2.517-.022 5.032-.072 7.549-.123 1.711-.02 3.423-.039 5.135-.055 4.184-.044 8.368-.113 12.552-.195l-1.312-2.555-1.688-3.32-1.687-3.305C677 316 677 316 677 314c6.315 2.025 12.481 4.311 18.629 6.793l2.652 1.063c2.762 1.108 5.522 2.22 8.282 3.331l5.658 2.272c4.594 1.844 9.187 3.692 13.779 5.541v2a8782.878 8782.878 0 0 1-16.54 6.671c-1.873.754-3.744 1.509-5.615 2.267a3525.98 3525.98 0 0 1-8.118 3.269l-2.495 1.013c-5.658 2.264-11.369 4.119-17.232 5.78 1.537-5.121 3.528-9.056 6-14l-31-1-1 4c-4.434-.394-7.894-1.326-12-3.063-7.236-2.766-15.739-3.084-23.327-1.43-2.994.552-5.771.617-8.816.616l-3.767.006-4.13-.009-4.394.003c-4.024.002-8.049-.002-12.074-.007-4.34-.004-8.68-.003-13.021-.002-7.519 0-15.039-.003-22.559-.008-10.872-.009-21.744-.011-32.616-.012-17.64-.003-35.279-.009-52.918-.019-17.136-.009-34.271-.016-51.407-.02l-3.2-.001-15.894-.004c-43.959-.01-87.918-.028-131.877-.05l1.504 2.367C261 344 261 344 260.938 346.125c-1.333 2.664-2.237 3.525-4.938 4.875a98.49 98.49 0 0 1-4.375-.313c-2.381-.18-2.381-.18-4.625.313-1.814 1.805-3.034 3.74-4.422 5.887-3.185 4.265-7.64 6.533-12.816 7.554-9.351.487-20.345-2.527-28.637-6.754-8.798-4.213-19.576.68-28.25 3.375a4656 4656 0 0 1-3.994 1.216c-8.182 2.502-16.288 5.193-24.381 7.972-16.323 5.585-33.158 10.008-50.5 9.812l-2.347-.013c-1.885-.012-3.769-.03-5.653-.049 25.527 8.933 51.052-.987 75.216-9.634 18.384-6.544 31.409-9.706 50.21-3.522 8.436 2.728 19.827 4.405 28.199.593 2.666-1.618 4.224-3.445 6.063-5.937 3.448-4.471 7.986-5.268 13.289-6.578 3.074-.938 4.824-1.588 7.023-3.922.387-1.991.725-3.991 1-6 8.174-.141 16.347-.247 24.521-.311a1138.9 1138.9 0 0 0 11.395-.142c19.22-.341 36.559.599 55.084 6.453l2.249.7c4.25 1.344 8.438 2.836 12.626 4.362 12.701 4.456 25.357 7.287 38.642 9.385 5.026.798 10.039 1.661 15.053 2.524 2.449.421 4.899.836 7.351 1.243 5.722.963 11.354 2.061 16.993 3.434 7.302 1.706 12.813 1.533 19.999-.325 13.023-3.278 25.848-4.012 39.212-4.511l2.941-.111c3.806-.143 7.613-.282 11.419-.417 15.276-.548 30.19-2.264 45.265-4.722l3.828-.622c16.791-2.629 16.791-2.629 29.485-13.003 4.525-5.399 10.212-6.072 16.937-6.937l2.161-.309c9.016-.631 19.259 3.732 26.839 8.309 1.7 2.701 2.016 3.742 1.813 7-.813 3-.813 3-2.25 4.812-2.044 2.861-2.429 5.548-3.09 8.965C645 373 645 373 643.875 375.937c-2.354 8.241-.402 16.433 1.563 24.563 9.82 41.318-1.365 83.504-23.038 119.276-6.915 10.987-14.722 21.099-23.743 30.427a105.668 105.668 0 0 0-5.278 5.953c-1.901 2.273-3.696 4.185-5.941 6.094l-2.09 1.777L583 566l-2.691 2.316C551.299 593 551.299 593 544 593a306.25 306.25 0 0 1-1.062-4.625l-.598-2.602c-.402-3.278-.27-5.595.66-8.773 2.047-2.133 2.047-2.133 4.75-4.125 37.721-29.148 62.602-71.932 69.569-119.032 1.07-8.816.876-17.728.869-26.593l.002-2.624c-.001-11.848-.356-23.529-1.752-35.306-1.366-12.104-1.366-12.104 1.375-15.695L620 372c2.187-1.924 3.073-3.16 4.313-5.875 2.084-3.859 4.224-5.473 7.687-8.125l2-2c-2.765-1.991-4.099-1.991-7.562-1.688-3.491 1.256-3.491 1.256-4.274 3.586a587.609 587.609 0 0 0-1.222 4.739c-1.435 3.601-4.098 5.211-7.098 7.531-2.175 2.161-2.628 3.694-3.344 6.644-.629 2.305-.629 2.305-1.5 4.188-3.014 1.26-4.84 1.685-8 2-8.079 1.074-15.348 2.91-22.941 5.851l-6.168 2.32-3.197 1.217C550.327 399.365 532.026 406.036 513 411l-2.393.644c-8.349 2.229-16.752 3.81-25.294 5.106l-2.482.388c-12.227 1.717-24.616.861-36.893.112l-2.102-.128c-21.769-1.352-43.754-3.165-65.211-7.185l-2.426-.454c-4.727-.969-8.979-2.104-13.199-4.483-1.968-3.039-1.968-3.039-3.5-6.625-2.815-6.189-6.022-11.263-10.5-16.375l-2.371-2.735C342.8 374.537 342.8 374.537 338 371l1.723 2.133C351.553 388.261 357.549 402.605 356 422c-.94 5.332-3.05 8.896-6.574 12.992-10.056 11.985-10.715 25.098-11.903 40.114-.44 5.453-1.2 10.815-2.099 16.209-1.256 7.963.082 14.668 2.065 22.395 8.417 32.918 1.184 80.109-14.489 110.29l-2 1-.974-1.921C311.405 606.008 311.405 606.008 301 590l-1.82-2.488A315.235 315.235 0 0 0 295 582l1.399 2.621c31.531 60.352 53.451 151.509 34.797 218.941-2.639 7.59-5.903 13.71-13.196 17.438-2.827.942-4.578 1.131-7.508 1.147l-2.807.022-3.082.008-3.261.019c-3.597.02-7.194.032-10.791.042l-3.767.014c-8.787.034-17.573.05-26.36.058l-6.318.008c-36.931.054-73.761-.222-110.614-2.895-24.674-1.789-49.183-2.388-73.844-.149-13.57 1.176-27.162.94-40.773.851-2.724-.011-5.448-.02-8.172-.028-6.567-.021-13.135-.054-19.703-.097-.17-5.766-.17-5.766 1.364-7.871C7.975 807.619 13.86 803.753 20 800c3.125-2.024 3.125-2.024 6.246-4.055 3.83-2.064 7.593-2.077 11.88-2.258 13.4-1.017 23.316-7.74 32.437-17.375 5.101-5.265 11.036-9.403 18.562-9.875 7.95 1.154 12.491 4.696 17.723 10.66 5.996 5.3 12.979 5.705 20.613 5.442 19.672-1.466 39.68-7.925 58.731-12.873 28.244-7.26 56.363-6.994 82.808 6.334-5.762-13.948-5.762-13.948-12.375-27.5-11.544-22.553-20.807-49.116-25.728-73.909-1.318-6.027-3.955-9.908-7.897-14.591-11.924-15.183-18.615-28.723-18.375-48.25l.031-3.615c.368-20.942 7.89-39.869 15.449-59.16.901-2.302 1.793-4.608 2.684-6.915 3.093-7.955 6.341-15.755 10.047-23.448 3.459-7.762 4.026-17.089 1.306-25.159-2.47-5.906-5.451-11.556-8.443-17.211-2.092-3.993-4.087-8.029-6.082-12.071-4.783-9.689-9.654-19.326-14.742-28.859-4.018-7.536-7.79-15.182-11.5-22.875l-1.617-3.34-1.484-3.101-1.331-2.776C188 401 188 401 188 399c8.516.608 14.544 3.35 21 9-2.69-6.377-5.636-10.862-11.976-13.969-10.802-4.009-23.177-2.488-34.334-.95-13.43 1.836-26.651 2.256-40.19 2.294l-2.821.023c-18.461.122-35.25-2.295-52.679-8.398l-2.796-.93c-11.758-4.231-21.557-11.576-28.141-22.195-1.236-3.345-1.651-5.343-1.063-8.875 10.04-13.82 32.546-21.438 48.845-24.66 9.266-1.463 18.666-1.503 28.025-1.57 2.276-.017 4.551-.04 6.827-.065 6.464-.07 12.927-.13 19.39-.182 35.991-.171 35.991-.171 71.476-5.648 18.428-4.2 18.428-4.2 27.75-.063 1.32.554 2.642 1.105 3.965 1.653l1.929.804c7.11 2.898 13.122 4.102 20.793 3.731-6.282-5.694-12.874-7.894-21-10 1.393-4.186 3.582-7.576 5.986-11.229C259.104 292.393 266.453 276.846 271 259h7l-3.312-1.313c-2.776-1.194-4.836-2.218-6.688-4.687-1.203-3.609-1.405-6.214-1-10 3.852-3.031 8.122-3.878 12.813-4.875C289.376 235.89 296.44 232.389 302 224a485.2 485.2 0 0 0 4.811-9.285c3.201-6.134 7.248-10.854 12.189-15.715-8.532 3.994-13.693 10.89-18.879 18.493-4.233 6.084-9.022 11.299-16.246 13.632l-2.82.941a647.62 647.62 0 0 1-6.547 1.961L271 235.062l-3.25.91c-2.761 1.032-4.111 1.598-5.75 4.028-.4 2.409-.4 2.409-.25 5l.047 2.625c.123 2.523.123 2.523 1.203 5.375 1.687 11.557-2.733 21.454-8.929 30.961C246.18 294.26 235.357 304.19 222 306c-11.579.715-21.308.605-30.875-6.75-5.161-4.784-7.795-11.283-8.562-18.188.102-7.85 4.394-15.306 9.75-20.875 2.596-2.378 5.366-4.46 8.187-6.562 13.539-10.458 17.266-26.063 20.677-42.091 3.002-13.782 8.97-25.345 20.823-33.534 24.519-13.487 62.37-11.156 86.473 3.504Z"/><path fill="#F9F7F2" d="m455.25 530.563 2.739-.006c49.159.02 49.159.02 62.292 12.523 5.71 6.378 7.592 14.539 9.074 22.733 2.107 10.515 5.188 20.338 8.916 30.378 1.892 5.104 3.73 10.227 5.573 15.348l1.221 3.388c6.176 17.21 11.928 34.569 17.742 51.903 5.453 16.259 10.961 32.496 16.65 48.674l.754 2.152C588.805 742.16 598.169 760.654 619 777c1.16.946 2.317 1.894 3.473 2.844a311.392 311.392 0 0 0 25.808 19.012c1.443.961 2.865 1.953 4.281 2.953 6.141 4.104 12.793 6.088 19.84 8.101 7.424 2.15 7.424 2.15 10.598 5.09-.28 1.893-.28 1.893-1 4-5.628 2.75-10.523 3.475-16.723 3.504l-2.469.037c-2.624.028-5.247.028-7.87.022l-2.71.006c-13.829-.003-25.903-1.752-39.113-5.962-8.902-2.552-16.863.033-25.435 2.487-8.099 1.995-15.148 1.765-22.742-1.73-2.663-1.874-4.205-3.589-5.938-6.364-.345-2.747-.477-5.024-.375-7.75l.039-2.158c.133-4.553.736-8.718 1.875-13.107 4.682-20.155-12.145-42.789-22.101-58.922-11.094-17.688-23.108-34.953-36.336-51.117C487.48 660.062 478.024 638.41 479 615c.715-6.944 2.197-12.594 5-19-20.327 7.421-40.196 15.533-59.828 24.642-14.704 6.795-29.618 12.934-45.422 16.671l-3.092.743c-12.223 2.865-23.855 4.111-36.408 4.257l-3.217.054-3.017-.003-2.71.009c-2.729-.441-3.603-1.252-5.306-3.373 1.407-4.388 3.048-8.619 4.812-12.875 9.907-24.597 14.566-50.695 15.942-77.113C346 546 346 546 347 543l3.715-.043c13.444-.313 25.99-2.492 39.112-5.301 5.183-1.071 10.391-1.97 15.611-2.843l2.718-.468c15.678-2.598 31.208-3.781 47.094-3.782Z"/><path fill="#F8F6F2" d="M402 0h4c1.683 2.95 2.254 5.106 2.308 8.492l.07 2.616.059 2.767c.439 12.163 1.328 23.88 8.563 34.125l1.386 2.008c12.784 16.422 37.078 22.818 55.627 30.167C515.539 96.632 556.202 116.382 590 146l2.719 2.344c33.485 29.351 53.569 75.243 57.124 119.229 1.062 16.436.008 32.597-4.843 48.427-1.865 1.865-5.055 1.533-7.563 1.812-8.344 1.003-16.337 2.995-24.437 5.188.699-6.784 1.704-13.45 2.894-20.162 7.368-42.683-1.345-87.988-25.972-123.865-24.876-34.047-59.29-55.725-96.753-73.919-1.509-.733-3.016-1.47-4.522-2.209-10.191-4.998-20.456-9.667-30.96-13.97C444.405 83.421 431.408 77.885 420 69l-1.914-1.418C407.645 59.372 402.133 46.909 400 34c-.193-4.324-.186-8.647-.186-12.975-.002-2.085-.02-4.169-.039-6.253l-.006-3.995-.012-3.648c.231-2.973.682-4.632 2.243-7.129Z"/><path fill="#F3F1EC" d="M677 314c6.315 2.025 12.481 4.311 18.629 6.793l2.652 1.063c2.761 1.108 5.521 2.22 8.281 3.332l5.659 2.271c4.594 1.844 9.187 3.692 13.779 5.541v2a8783.8 8783.8 0 0 1-16.541 6.671c-1.872.754-3.744 1.51-5.615 2.267-2.704 1.094-5.41 2.182-8.117 3.269l-2.495 1.014c-5.658 2.263-11.37 4.118-17.232 5.779a60.539 60.539 0 0 1 4.078-10.219l1.091-2.154L682 340l-2.63-.044c-3.217-.061-6.434-.135-9.65-.218a485.409 485.409 0 0 0-4.179-.084c-2.001-.034-4.001-.088-6.002-.142l-3.65-.08L653 339l-2-3h21v-4h-23l-1-3 35-1-6-12v-2Z"/><path fill="#F6F4F0" d="m474 632.001 1 9-2.93 1.871c-13.777 8.911-26.001 17.855-31.07 34.129-1.364 6.383-1.304 12.886-1.43 19.388-.17 4.994-.346 8.534-3.57 12.612-2.437-.375-2.437-.375-5-1-2.155-4.31-1.227-10.06-1.24-14.847-.01-2.118-.041-4.235-.072-6.353-.118-14.775 3.589-25.893 13.875-36.863 5.142-4.871 10.987-8.867 16.831-12.844 1.39-.946 2.769-1.909 4.145-2.875 4.96-3.344 4.96-3.344 9.461-2.218Z"/><path fill="#EAE9E6" d="M402 0h4c1.675 2.943 2.262 5.117 2.344 8.492l.086 2.619.07 2.764c.299 8.51 1.046 16.725 2.5 25.125l-2 1-2-7c-1.952 1.952-2.849 3.532-4 6h-2c-1.408-5.948-1.186-11.894-1.186-17.975-.002-2.085-.02-4.169-.039-6.253l-.006-3.995-.012-3.648c.231-2.973.682-4.632 2.243-7.129Z"/><path fill="#F0EEEB" d="m99 390 1 2c5.82 1.39 12.034 1.089 17.973.879l2.45-.072c2.547-.075 5.093-.16 7.639-.245l5.225-.158c4.238-.128 8.476-.264 12.713-.404l-1 3c-6.138.025-12.276.043-18.414.055-2.087.005-4.173.012-6.259.02-3.006.013-6.012.018-9.018.023l-2.807.015c-4.946.001-9.626-.27-14.502-1.113l-1-3 6-1Z"/><path fill="#E8E7E5" d="m444.223 413.77 3.839.042 3.848.02C455 414 455 414 456 415c1.562.087 3.127.107 4.691.098l2.862-.01 3.009-.026 3.022-.013c2.472-.012 4.944-.028 7.416-.049l-2 3c-11.579 1.693-24.435-.819-36-2 2-2 2-2 5.223-2.23Z"/><path fill="#D9D7D4" d="m220.938 764.937 3.228.013c2.611.012 5.223.029 7.834.049l-1 3-28 1-1-3c6.326-1.139 12.523-1.114 18.938-1.062Z"/><path fill="#E4E3E1" d="m55.375 815.874 2.52.028c2.035.023 4.07.059 6.105.097v2l3 1c-5.101.834-10.022 1.183-15.188 1.188l-2.115.037c-3.735.011-6.527-.153-9.697-2.225 5.25-2.157 9.808-2.24 15.375-2.125Z"/><path fill="#E5E4E2" d="m159 777.999 1 2-3.613.84-4.699 1.098-2.381.552-2.295.537-2.111.492c-1.654.419-3.282.941-4.901 1.481l-2-2v-2a1499.23 1499.23 0 0 1 8.812-2.062l2.526-.604 2.432-.557 2.237-.523c1.993-.254 1.993-.254 4.993.746Z"/><path fill="#ECECEA" d="M330 801c1 3 1 3 .18 5.305-2.556 5.034-4.878 9.008-9.18 12.695l-2-1c.25-2.375.25-2.375 1-5l1.879-.879c2.736-1.446 3.418-2.951 4.809-5.683 2.272-4.398 2.272-4.398 3.312-5.438Z"/><path fill="#EFEEEC" d="M640 477c1.147 3.44.871 4.003-.434 7.23l-.966 2.432-1.038 2.526-1.025 2.56A825.405 825.405 0 0 1 634 498h-2c.469-5.39 1.959-9.786 4.062-14.766 1.014-2.337 1.014-2.337 1.938-5.234l2-1Z"/><path fill="#F1EFEB" d="M405 411h8v2l1.66-.254c7.899-1.015 15.435-.431 23.34.254v1c-27.841 1.875-27.841 1.875-31.781-1.547L405 411Z"/><path fill="#EEEDEB" d="M556 655h3l6 19-3 1a871.642 871.642 0 0 1-1.5-5.25l-.844-2.953C559 664 559 664 559 660h-2l-1-5Z"/><path fill="#E8E7E5" d="m222 468 4 2v3h2l2 8h2l2 7-2 1c-1.67-3.311-3.335-6.624-5-9.938l-1.445-2.865-1.367-2.724-1.27-2.524C222 469 222 469 222 468Z"/><path fill="#EBEAE8" d="m369 405 8 1v2l3.188-.688c4.194-.343 5.569.133 8.812 2.688v1c-14.423-1.144-14.423-1.144-19-3l-1-3Z"/><path fill="#EDEBE9" d="m677 314 12 4-1 3-6-2 1 4-2 1a615.944 615.944 0 0 1-2-3.875l-1.125-2.18C677 316 677 316 677 314Z"/><path fill="#D2D0CF" d="m337 212 .076 1.697c.116 2.538.239 5.077.361 7.615l.119 2.67.127 2.569.112 2.364c.146 2.278.146 2.278 1.205 5.085-3.875-1.75-3.875-1.75-5-4a243.163 243.163 0 0 1-.063-8.625l.014-2.43c.012-1.981.03-3.963.049-5.945 2-1 2-1 3-1Z"/><path fill="#E5E3E2" d="m544 576 3 1-2 1c-.042 2.333-.04 4.667 0 7l1 1a194.46 194.46 0 0 1 0 7h-2c-2.529-10.578-2.529-10.578-1-16l1-1Z"/><path fill="#E3E1E0" d="m190 327-1 3-3.938-.062A59.158 59.158 0 0 0 181 330l-1 1a73.828 73.828 0 0 1-4.562.062l-2.504-.027L171 331l-1-3c2.583-.168 5.167-.335 7.75-.5l2.211-.145c3.357-.213 6.673-.355 10.039-.355Z"/><path fill="#E7E5E3" d="m442 531.001 1 3-1.863-.07-2.449-.055-2.426-.07c-2.546.037-2.546.037-5.262 2.195-3.188-.375-3.188-.375-6-1l1-3c5.371-.682 10.585-1.115 16-1Z"/><path fill="#F1F0EE" d="M160 363v2a3470.33 3470.33 0 0 1-8.375 3l-2.406.867-2.305.821-2.126.761C143 371 143 371 141 371l-1-3 2.75-.375c2.922-.562 4.674-1.256 7.25-2.625 3.669-1.376 6.032-2 10-2Z"/><path fill="#E8E7E5" d="m616 461 3 2c-.923 9.077-.923 9.077-3 13l-3 2 3-17Z"/><path fill="#E2E1DE" d="M619 419h1v17h2c.544 3.058 1 5.888 1 9l-3 4v-11h-1v-19Z"/><path fill="#EEEDEB" d="M206 628h3c.67 2.124 1.336 4.249 2 6.375l1.125 3.586C213 641 213 641 213 643h-2c-.837-2.123-1.67-4.249-2.5-6.375l-1.406-3.586C206 630 206 630 206 628Z"/><path fill="#EDECEA" d="M311 620c2.004 3.006 3.031 5.592 4.188 9l1.105 3.188C317 635 317 635 316 638h-2c-1.452-4.537-2.235-8.181-2-13l-2-1 1-4Z"/><path fill="#EFEEEC" d="M544 614c1.992 2.988 3.029 5.554 4.188 8.938l1.105 3.152c.696 2.865.732 4.2-.293 6.91-1.853-2.779-2.647-4.721-3.562-7.875l-.754-2.555c-.67-2.519-1.284-4.993-1.684-7.57l1-1Z"/><path fill="#ECEBE9" d="M188 399c4.714.479 8.666.968 13 3v2l-8-2 1 5c-1.875-.625-1.875-.625-4-2-1.25-3.125-1.25-3.125-2-6Z"/><path fill="#EBEAE8" d="M433 369.001c-3.265 1.883-6.281 2.492-10 3v-2l-10-1v-1c6.389-1.917 13.621-.489 20 1Z"/><path fill="#F0EEE9" d="M91 814.999v1l-18 2v1h-6v-3c8.017-1.125 15.921-1.095 24-1Z"/><path fill="#EAE8E7" d="m470 631 4 1 1 9-4 2 1-8-5 1 1.5-1.938c1.598-1.772 1.598-1.772 1.5-3.062Z"/><path fill="#F0EEEC" d="M576 389c-3.07 2.047-5.691 2.998-9.188 4.125l-3.292 1.071L561 395v-3a429.38 429.38 0 0 1 5.25-2.062l2.953-1.16c2.837-.789 4.091-.802 6.797.222Z"/><path fill="#EBEAE9" d="M590 745a220.114 220.114 0 0 1 6.188 8.562l1.605 2.317C599 758 599 758 599 761c-2.5-1.812-2.5-1.812-5-4v-3l-3-1c-1.188-3.562-1.188-3.562-2-7l1-1Z"/><path fill="#EBEAE8" d="M64 383c9.938 1.805 9.938 1.805 13 5v2c-1.606-.452-3.21-.912-4.813-1.375l-2.706-.773C67 387 67 387 64 385v-2Z"/><path fill="#E1E0DF" d="m578 362-1 3c-4.368.699-8.574 1.309-13 1l-2-2c1.916-.337 3.833-.67 5.75-1l3.234-.562C574 362 574 362 578 362Z"/><path fill="#EDECEB" d="M719 336.999c-3.163 2.109-6.135 3.289-9.688 4.625l-3.574 1.352-2.738 1.023c1.253-3.759 2.292-4.01 5.75-5.75l2.609-1.359c3.014-1.016 4.629-.779 7.641.109Z"/><path fill="#F1F0EE" d="M242 178v3-3Zm-3 2 2 1c-2.315 3.721-4.286 6.612-8 9l-2-2 8-8Z"/><path fill="#ECEBE9" d="M406 20h1l1 5h1l2 14-2 1-.403-2.152-.535-2.785-.527-2.778c-.312-2.238-.312-2.238-1.535-3.285a74.633 74.633 0 0 1-.063-4.563l.028-2.503L406 20Z"/><path fill="#EEECEA" d="M237 696c3 1 3 1 4.125 2.812 1.453 3.634 2.13 7.355 2.875 11.188-2.752-1.666-3.867-2.656-5.047-5.699l-.703-2.989-.734-3.011L237 696Z"/><path fill="#F1F0ED" d="m483 640 3 1c.949 2.504.949 2.504 1.688 5.562l.761 3.067L489 652h-3a687.768 687.768 0 0 1-1.5-4.312l-.844-2.426C483 643 483 643 483 640Z"/><path fill="#EAE9E7" d="m620 372 1 2-2-1 1-1Zm-3 2 3 1-.5 2.062c-.571 3.354-.567 6.542-.5 9.938l-3-2c-.328-2.094-.328-2.094-.25-4.5l.047-2.406C616 376 616 376 617 374Z"/><path fill="#E8E7E5" d="m183 364.999-2.812 1.313c-3.136 1.411-3.136 1.411-4.688 3.437l-1.5 1.25c-3.188-.312-3.188-.312-6-1v-2a892.734 892.734 0 0 1 6.375-2.062l3.586-1.16c3.039-.778 3.039-.778 5.039.222Z"/><path fill="#F1F0EE" d="m479 625 3 1 2 11h-3c-1.138-4.266-2-7.565-2-12Z"/><path fill="#F0EEEC" d="M174 359c-1 2-1 2-3.504 2.852l-3.058.773-3.067.789L162 364l-1-3c1.412-.534 2.83-1.052 4.25-1.562l2.391-.879c2.55-.604 3.912-.406 6.359.441Z"/><path fill="#EAEAE8" d="m35 795 1 2c-9.41 2.297-9.41 2.297-14 2 3.948-3.341 7.882-5.706 13-4Z"/><path fill="#E5E4E2" d="M212 359c5.656-.565 9.226 1.286 14 4-3.404 1.138-5.775.84-9.25.063l-2.703-.59L212 362v-3Z"/><path fill="#F2F1ED" d="m318 816 1 2 2 1c-2.839 1.892-4.935 3.109-8.402 2.754A91.532 91.532 0 0 1 306 820v-1l12-1v-2Z"/><path fill="#F0EFED" d="M493 661c2 3 2 3 2 5l4 2-1 2 3 1-1 3c-6.942-6.76-6.942-6.76-7.125-10.688L493 661Z"/><path fill="#ECEBE9" d="m418 619 1 2 2 1-12 5c2.278-4.556 3.53-5.003 8-7l1-1Z"/><path fill="#E9E8E6" d="M337 515h1c1.332 11.522 1.332 11.522 0 17h-1a1398.63 1398.63 0 0 1-.563-7.375l-.17-2.117c-.381-5.281-.381-5.281.733-7.508Z"/><path fill="#EFEEEA" d="M635 791c3.337 1.173 5.774 2.189 8 5v2c-2.972-1.125-5.334-2.223-8-4v-3Zm-2 2 2 2h-2v-2Z"/><path fill="#ECECEA" d="M574 706h2l3 10h-3c-1.603-3.508-2.22-6.144-2-10Z"/><path fill="#EFEEEB" d="M235 683c2.421 2.421 2.529 3.801 3.125 7.125l.508 2.758L239 695h-3a356.607 356.607 0 0 1-1.062-4.312l-.598-2.426C234 686 234 686 235 683Z"/><path fill="#F1F0ED" d="M465 602c-2.228 2.229-3.658 2.693-6.625 3.625l-2.477.789L454 607v-3c4.103-2.385 6.386-3.492 11-2Z"/><path fill="#EDECEA" d="M487 593.999c-2.349 2.35-3.957 2.732-7.125 3.625l-2.758.79-2.117.585-1-3 1.75-.375c2.273-.529 2.273-.529 4.188-1.75 2.688-1.14 4.301-.642 7.062.125Z"/><path fill="#F0EEEA" d="M100 384h10v1l5 1v1h-15v-3Z"/><path fill="#F0EEEC" d="M645 300h3c-.519 4.379-1.056 8.688-2 13-2.301-3.452-2.138-4.235-1.625-8.188l.336-2.73L645 300Z"/><path fill="#EAE9E7" d="m617 246 3 1c.054 1.604.093 3.208.125 4.812l.07 2.708C620 257 620 257 618 260l-1-14Z"/><path fill="#F2F1EE" d="M649 801c3.791 1.45 7.387 3.152 11 5v3l-5-2v-2l-6-1v-3Z"/><path fill="#EBEBE8" d="M186 770v3c-7.429 2.429-7.429 2.429-11 1 1-2 1-2 2.777-2.633l2.161-.492 2.152-.508C184 770 184 770 186 770Z"/><path fill="#EFECEA" d="M345 582c.082 1.603.14 3.208.188 4.812l.105 2.708c-.342 2.896-1.047 3.706-3.293 5.48-.923-4.308-1.097-7.709 0-12 2-1 2-1 3-1Z"/><path fill="#CDCDCE" d="m185 272 2 1-2 12h-2a273.668 273.668 0 0 1-.125-4.25l-.07-2.391c.212-2.566.908-4.151 2.195-6.359Z"/><path fill="#EEEEEC" d="M321 179c3.403 1.059 6.014 2.009 9 4 .188 3.125.188 3.125 0 6l-.188-1.875c-.626-2.372-.626-2.372-3.187-3.25L324 183l-3-2v-2Z"/><path fill="#E2E1DF" d="M527 559h1l2 13h-3a376.892 376.892 0 0 1-.563-4.25l-.316-2.391c-.122-2.364.182-4.11.879-6.359Z"/><path fill="#E3E2E2" d="M641 228c1.903 2.855 2.462 4.419 3.125 7.688l.508 2.449L645 240h-2c-2.052-3.448-3.063-5.317-2.687-9.375L641 228Z"/><path fill="#E3E1DD" d="m171 816 9 3v2c-6.4.369-6.4.369-9.438-1.5L169 818l2-2Z"/><path fill="#EEEDEB" d="M398 629.999c-1 2-1 2-2.996 2.704l-2.442.546-2.433.579-2.129.171-2-2c4.177-1.591 7.532-2.212 12-2Z"/><path fill="#EBEAE8" d="M344 571h3l-1 9-3 1 1-10Z"/><path fill="#EDECE9" d="M185 277h1l.184 2.484.253 3.266.247 3.234c.257 2.453.634 4.655 1.316 7.016h-2c-1.867-3.897-2.14-6.541-1.625-10.812l.336-2.958L185 277Z"/><path fill="#E2E0DD" d="m16.625 815.938 2.477.027L21 816v2c-3.089 2.06-3.71 2.239-7.188 2.125L10 820v-3c2.405-1.202 3.95-1.1 6.625-1.062Z"/><path fill="#E7E6E4" d="m271 169.999-1 3-11-1v-1c4.053-.982 7.839-1.082 12-1Z"/><path fill="#ECEBE8" d="m208 583 3 1v6h-2l-1 4c-1.125-7.625-1.125-7.625 0-11Z"/><path fill="#EBEAE6" d="M336 461h1c1.102 4.409 1.077 8.484 1 13h-3c-.125-4.75-.125-4.75 1-7 .04-2 .043-4 0-6Z"/><path fill="#EEECE9" d="M195 406c2 2 2 2 2.063 4.938L197 414l1 3-2 1c-1.414-3.8-2.349-6.929-2-11l1-1Z"/><path fill="#E8E6E4" d="m203 326 1 2-7-1v2h-5c2-3 2-3 4.375-3.75 2.582-.246 4.222-.194 6.625.75Z"/><path fill="#EEEDEC" d="M310 209c1.192 4.766.342 5.879-2 10h-2v2l-2-1 6-11Z"/><path fill="#E9E5E1" d="m322 812 2 2c-.25 2.062-.25 2.062-1 4l-2 1-2-1c.375-2.438.375-2.438 1-5l2-1Z"/><path fill="#ECEAE7" d="M138 781h9v2l-7 2-2-2v-2Z"/><path fill="#F0EFEC" d="M224 543c.688 1.75.688 1.75 1 4-1.312 2.25-1.312 2.25-3 4h-2a128.641 128.641 0 0 1 2-7l2-1Z"/><path fill="#EBEAE8" d="M577 717h3l3 9-3 1-1-8h-2v-2Z"/><path fill="#F0EEEA" d="M358.25 637.875 362 638l-1 3-11-1c3.611-1.806 4.545-2.249 8.25-2.125Z"/><path fill="#F0EFEC" d="m707 326 7 2-1 3-8-3 2-2Z"/><path fill="#EDECE9" d="m251 305 3 3-4 3-2-2 3-4Z"/><path fill="#F0F0EE" d="m264 282 2 2c-1.186 3.375-2.276 5.647-5 8l-2-1 5-9Z"/><path fill="#E7E7E7" d="M500 106c7.571 1.857 7.571 1.857 10 5l-1 2-9-5v-2Z"/><path fill="#E1E1DF" d="M561 786h1v12h-3l2-12Z"/><path fill="#EDECE9" d="M582 727c2 1 2 1 3.125 4.062L586 734l-3 1c-1.43-2.354-2.087-3.48-1.625-6.25L582 727Z"/><path fill="#E9E9E8" d="M325 669c2.12 3.534 2.532 6.944 3 11h-3a493.264 493.264 0 0 1-.563-4.375l-.316-2.461C324 671 324 671 325 669Z"/><path fill="#E9E8E7" d="m359 352 8 2v3l-8-2v-3Z"/><path fill="#EBEBE9" d="m259 343 2 1c-.188 1.812-.188 1.812-1 4-2.562 1.75-2.562 1.75-5 3l-1-3 5-1v-4Z"/><path fill="#EFEDEB" d="M80 333c-1.25 1.5-1.25 1.5-3 3h-4v-3c3.133-1.044 3.99-.934 7 0Z"/><path fill="#F0EDE8" d="m643 311 2 2-1 3h-12c4-2 4-2 7.188-2.5L642 313l1-2Z"/><path fill="#EDECEA" d="m335 260 4 1v7l-3-1-1-7Z"/><path fill="#E8E7E6" d="M554 645c2 1 2 1 2.633 2.848l.492 2.214.508 2.223L558 654h-2c-2.29-3.435-2.179-4.985-2-9Z"/><path fill="#E9E9E6" d="M481 603h2l1 8-4-1 1-7Z"/><path fill="#EAEAE8" d="m623 514 2 1-5 8c-1-3-1-3-.188-5.625C621 515 621 515 623 514Z"/><path fill="#F0EDEB" d="M217 458c1.875.125 1.875.125 4 1 1.25 3.062 1.25 3.062 2 6h-3l-3-7Z"/><path fill="#EEEEED" d="m619 360 2 1c-1.35 4.419-3.261 6.343-7 9l.938-1.812c1.164-2.278 1.164-2.278 2.062-5.188h2v-3Z"/><path fill="#ECECEA" d="m222 210 2 1v4h-2l1 4h-3l2-9Z"/><path fill="#ECEBEA" d="M319 649h2l2 9h-2v-3h-2v-6Z"/><path fill="#EBEAE8" d="m579 542 2 2-2 4h-3l2-2v-3l1-1Z"/><path fill="#E2E2E1" d="m402 536.999-1 2c-2.875.125-2.875.125-6 0l-2-2c3.378-.844 5.675-1.108 9 0Z"/><path fill="#EFEEEB" d="m236 510 2 1-1 7h-3l2-8ZM134 371l-1 3-6 1v-3c2.463-1.232 4.28-1.072 7-1Z"/><path fill="#D8D7D8" d="m677 314 7 2-3 1-1 3c-3-3.75-3-3.75-3-6Z"/><path fill="#EBEBE8" d="M249 729h3c1.062 1.812 1.062 1.812 2 4l-1 3h-2l-2-7Z"/><path fill="#EDECEA" d="M453 607c-2.666 1.777-5.028 2.876-8 4 .312-1.937.312-1.937 1-4 3.133-1.044 3.99-.934 7 0Z"/><path fill="#EBEBE9" d="M197 419c3 1 3 1 5 4 .125 2.688.125 2.688 0 5-2.325-2.853-3.751-5.541-5-9Z"/><path fill="#EBEAE8" d="M645 402h1l1 9-3-1c-.125-5.75-.125-5.75 1-8Z"/><path fill="#F1F0EE" d="M527 406c-2.918 1.945-4.625 2.453-8 3v-3c2.862-1.431 4.934-.6 8 0Z"/><path fill="#EBEBE8" d="m258 172-1 3-5 1v-3c3-1 3-1 6-1Z"/><path fill="#DBD9D5" d="m678 818-2 1.437-2 1.563v1c-2.124.08-4.25.139-6.375.187l-3.586.106L661 822l-2-3c2.229-.169 4.458-.335 6.688-.5l3.761-.282c2.866-.176 5.682-.262 8.551-.218Z"/><path fill="#EDEBE9" d="m201 818 11 1v2l4 1h-23v-1l3.438-.375L200 820l1-2Z"/></svg>