<svg xmlns="http://www.w3.org/2000/svg" fill="{{currentColor}}" viewBox="0 0 726 823">
  <path fill="{{currentColor}}" d="M328.5 181.5c1.5 1.5 1.5 1.5 2 4.4-.6 3.7-2 5.4-4.5 8.1l1.8.7c2.6 1.6 3.4 2.9 4.8 5.5l1.3 2.2a38 38 0 0 1 3.3 16.4A36 36 0 0 0 345 243c4 5.3 4 5.3 4.3 8.6-2.2 4-6.1 4.8-10.3 6.4v10l-5 2a4060.4 4060.4 0 0 1 0 3.8l-.3 5v2.5c-.2 6.2-.2 6.2-2.5 8.7a32 32 0 0 1-14 2.2h-2A39 39 0 0 1 302 290l-.5 1.6-.8 2.2-.8 2.5a122.4 122.4 0 0 1-2 5.4c-3.3 8.4-3.3 8.4-2.9 17.3 2.3 4.3 5 7.3 9 10 2.4.3 2.4.3 5.1.3h32.3a11221.3 11221.3 0 0 0 82.7.1h13.8a18835.9 18835.9 0 0 1 115.9.2 4085.4 4085.4 0 0 0 33 0c14.5.1 28-.2 42-4.5 4.4-1.3 8.7-1.8 13.2-1.1a231.5 231.5 0 0 1 5 4c3 .3 5.5.5 8.4.4h2.4a655.3 655.3 0 0 0 12.6-.2l12.6-.2-1.3-2.6-1.7-3.3-1.7-3.3C677 316 677 316 677 314a243 243 0 0 1 18.6 6.8l2.7 1 8.3 3.4 5.6 2.3L726 333v2a8782.9 8782.9 0 0 1-16.5 6.7l-5.7 2.2a3526 3526 0 0 1-8 3.3l-2.6 1A173 173 0 0 1 676 354c1.5-5.1 3.5-9 6-14l-31-1-1 4c-4.4-.4-7.9-1.3-12-3a42 42 0 0 0-23.3-1.5c-3 .6-5.8.6-8.8.6h-37.4a33929.6 33929.6 0 0 1-108.1 0h-70.6L258 339l1.5 2.4c1.5 2.6 1.5 2.6 1.4 4.7a8.8 8.8 0 0 1-4.9 4.9 98.5 98.5 0 0 1-4.4-.3c-2.4-.2-2.4-.2-4.6.3-1.8 1.8-3 3.7-4.4 5.9a20.1 20.1 0 0 1-12.8 7.5c-9.4.5-20.4-2.5-28.7-6.7-8.8-4.2-19.6.7-28.2 3.4a4656 4656 0 0 1-4 1.2 754 754 0 0 0-24.4 8c-16.3 5.5-33.2 10-50.5 9.8h-2.3L86 380c25.5 9 51-1 75.2-9.6 18.4-6.6 31.4-9.7 50.2-3.6 8.5 2.8 19.9 4.4 28.2.6 2.7-1.6 4.2-3.4 6-5.9 3.5-4.5 8-5.3 13.4-6.6 3-1 4.8-1.6 7-3.9l1-6 24.5-.3a1138.9 1138.9 0 0 0 11.4-.2c19.2-.3 36.6.6 55.1 6.5l2.2.7c4.3 1.3 8.5 2.8 12.7 4.4 12.7 4.4 25.3 7.2 38.6 9.3l15 2.6 7.4 1.2c5.7 1 11.4 2 17 3.4a38 38 0 0 0 20-.3c13-3.3 25.9-4 39.2-4.5l3-.1 11.4-.4c15.3-.6 30.2-2.3 45.3-4.7l3.8-.7c16.8-2.6 16.8-2.6 29.5-13 4.5-5.4 10.2-6 16.9-6.9l2.2-.3c9-.6 19.2 3.7 26.8 8.3 1.7 2.7 2 3.7 1.8 7-.8 3-.8 3-2.2 4.8-2 2.9-2.5 5.6-3.1 9-.5 2.2-.5 2.2-1.6 5.1a47.6 47.6 0 0 0 1.5 24.6c9.9 41.3-1.3 83.5-23 119.3-7 11-14.7 21-23.7 30.4a105.7 105.7 0 0 0-5.3 6 48.3 48.3 0 0 1-6 6l-2 1.8-2.4 2-2.7 2.3c-29 24.7-29 24.7-36.3 24.7a306.3 306.3 0 0 1-1-4.6l-.7-2.6c-.4-3.3-.2-5.6.7-8.8 2-2.1 2-2.1 4.8-4.1 37.7-29.2 62.6-72 69.5-119 1-8.9.9-17.8.9-26.6v-2.7c0-11.8-.4-23.5-1.8-35.3-1.3-12-1.3-12 1.4-15.7l2.2-1.6c2.2-2 3-3.2 4.3-5.9 2.1-3.8 4.2-5.4 7.7-8.1l2-2c-2.8-2-4.1-2-7.6-1.7-3.5 1.3-3.5 1.3-4.2 3.6a587.6 587.6 0 0 0-1.3 4.7c-1.4 3.6-4 5.2-7 7.6-2.2 2.1-2.7 3.7-3.4 6.6-.6 2.3-.6 2.3-1.5 4.2a24 24 0 0 1-8 2c-8 1-15.3 3-23 5.9l-6.1 2.3-3.2 1.2A543 543 0 0 1 513 411l-2.4.6c-8.3 2.3-16.7 3.9-25.3 5.1l-2.5.4c-12.2 1.8-24.6.9-36.9.1h-2a534.6 534.6 0 0 1-65.3-7.3l-2.4-.4c-4.7-1-9-2.1-13.2-4.5-2-3-2-3-3.5-6.6A64 64 0 0 0 349 382l-2.4-2.7c-3.8-4.8-3.8-4.8-8.6-8.3l1.7 2.1A65.7 65.7 0 0 1 356 422c-1 5.3-3 8.9-6.6 13-10 12-10.7 25-11.9 40.1-.4 5.5-1.2 10.8-2 16.2-1.3 8 0 14.7 2 22.4 8.4 33 1.2 80.1-14.5 110.3l-2 1-1-2c-8.6-17-8.6-17-19-33l-1.8-2.5a315.2 315.2 0 0 0-4.2-5.5l1.4 2.6c31.5 60.4 53.5 151.5 34.8 219-2.6 7.6-6 13.7-13.2 17.4-2.8 1-4.6 1.1-7.5 1.1h-5.9l-3.3.1h-14.5l-26.4.1h-6.3c-37 0-73.8-.2-110.6-2.9a452 452 0 0 0-73.9-.1c-13.5 1.2-27.1 1-40.7.8A7420.3 7420.3 0 0 0 1 820c-.2-5.8-.2-5.8 1.4-7.9A177 177 0 0 1 20 800l6.2-4c3.9-2.1 7.6-2.1 12-2.3 13.3-1 23.2-7.8 32.4-17.4 5-5.3 11-9.4 18.5-9.9 8 1.2 12.5 4.7 17.7 10.7 6 5.3 13 5.7 20.7 5.4 19.6-1.4 39.6-7.9 58.7-12.8 28.2-7.3 56.4-7 82.8 6.3-5.8-14-5.8-14-12.4-27.5a293.3 293.3 0 0 1-25.7-74c-1.3-6-4-9.8-7.9-14.5-12-15.2-18.6-28.7-18.4-48.3v-3.6c.4-21 8-39.8 15.5-59.1 1-2.3 1.8-4.6 2.7-7a299 299 0 0 1 10-23.4 35 35 0 0 0 1.3-25.1c-2.4-6-5.4-11.6-8.4-17.3l-6-12c-4.9-9.7-9.7-19.4-14.8-28.9-4-7.5-7.8-15.2-11.5-22.9l-1.6-3.3-1.5-3.1-1.4-2.8c-.9-2.2-.9-2.2-.9-4.2a33 33 0 0 1 21 9c-2.7-6.4-5.6-10.9-12-14-10.8-4-23.2-2.5-34.3-1a300.2 300.2 0 0 1-40.2 2.4h-2.8A152 152 0 0 1 67 387l-2.8-1a53.6 53.6 0 0 1-28.1-22 14.9 14.9 0 0 1-1.1-9c10-13.8 32.5-21.4 48.8-24.7 9.3-1.4 18.7-1.5 28-1.5a1942.3 1942.3 0 0 0 26.3-.3c36-.1 36-.1 71.5-5.6 18.4-4.2 18.4-4.2 27.7 0l4 1.6 2 .8A45.5 45.5 0 0 0 264 329a45.5 45.5 0 0 0-21-10c1.4-4.2 3.6-7.6 6-11.2a158 158 0 0 0 22-48.8h7l-3.3-1.3a14.4 14.4 0 0 1-6.7-4.7 21.1 21.1 0 0 1-1-10c3.9-3 8.1-3.9 12.8-4.9A32.6 32.6 0 0 0 302 224a485.2 485.2 0 0 0 4.8-9.3A61.6 61.6 0 0 1 319 199a48.2 48.2 0 0 0-18.9 18.5c-4.2 6-9 11.3-16.2 13.6l-2.8 1a647.6 647.6 0 0 1-6.6 2l-3.5 1-3.3.9c-2.7 1-4 1.6-5.7 4-.4 2.4-.4 2.4-.3 5l.1 2.6c.1 2.5.1 2.5 1.2 5.4 1.7 11.6-2.7 21.5-9 31-7.8 10.3-18.6 20.2-32 22-11.6.7-21.3.6-30.9-6.8a28.5 28.5 0 0 1-8.5-18.1 32 32 0 0 1 9.7-21 130 130 0 0 1 8.2-6.5c13.5-10.4 17.3-26 20.7-42 3-13.8 9-25.4 20.8-33.6 24.5-13.5 62.4-11.2 86.5 3.5Z"/>
  <path fill="{{currentColor}}" d="M455.3 530.6h2.7c49.1 0 49.1 0 62.3 12.5a44.3 44.3 0 0 1 9 22.7c2.2 10.5 5.2 20.4 9 30.4l5.5 15.3 1.3 3.4c6.1 17.2 11.9 34.6 17.7 52a4654 4654 0 0 0 16.7 48.6l.7 2.2c8.6 24.5 18 43 38.8 59.3l3.5 2.8a311.4 311.4 0 0 0 25.8 19l4.3 3a67.2 67.2 0 0 0 19.8 8.1c7.4 2.2 7.4 2.2 10.6 5.1-.3 1.9-.3 1.9-1 4a35.5 35.5 0 0 1-16.7 3.5h-13.1c-13.8 0-25.9-1.7-39-5.9-9-2.5-17 0-25.5 2.5-8.1 2-15.2 1.8-22.8-1.7a19.7 19.7 0 0 1-5.9-6.4c-.3-2.7-.5-5-.4-7.8v-2.1c.2-4.6.8-8.7 2-13.1 4.6-20.2-12.2-42.8-22.2-59-11-17.6-23-34.9-36.3-51a93.7 93.7 0 0 1-23.1-63 60 60 0 0 1 5-19 764.8 764.8 0 0 0-59.8 24.6c-14.7 6.8-29.6 13-45.4 16.7l-3.1.8a164 164 0 0 1-36.4 4.2h-9c-2.7-.4-3.6-1.2-5.3-3.3 1.4-4.4 3-8.6 4.8-12.9 10-24.6 14.6-50.7 16-77 .2-3.1.2-3.1 1.2-6.1h3.7c13.5-.4 26-2.5 39.1-5.3 5.2-1.1 10.4-2 15.6-2.9l2.8-.5a286 286 0 0 1 47-3.7Z"/>
  <path fill="{{currentColor}}" d="M402 0h4c1.7 3 2.3 5.1 2.3 8.5V11l.1 2.8c.6 12.2 1.4 24 8.6 34.2l1.4 2c12.8 16.4 37 22.8 55.6 30.2 41.5 16.4 82.2 36.2 116 65.8l2.7 2.3c33.5 29.4 53.6 75.3 57.1 119.3A134 134 0 0 1 645 316c-1.9 1.9-5 1.5-7.6 1.8-8.3 1-16.3 3-24.4 5.2.7-6.8 1.7-13.4 2.9-20.2 7.4-42.6-1.4-88-26-123.8-24.9-34-59.3-55.8-96.7-74l-4.6-2.2c-10.1-5-20.4-9.6-31-14-13.2-5.4-26.2-11-37.6-19.8l-2-1.4A52.6 52.6 0 0 1 400 34c-.2-4.3-.2-8.6-.2-13V7.1c.2-3 .6-4.6 2.2-7.1Z"/>
  <path fill="{{currentColor}}" d="M677 314a243 243 0 0 1 18.6 6.8l2.7 1 8.3 3.4 5.6 2.3L726 333v2a8783.8 8783.8 0 0 1-16.5 6.7 3872.5 3872.5 0 0 0-13.8 5.5l-2.5 1c-5.6 2.3-11.3 4.1-17.2 5.8a60.5 60.5 0 0 1 4-10.2l1.2-2.2.8-1.6h-2.6l-9.7-.3a485.4 485.4 0 0 0-4.2 0l-6-.2H656l-2.9-.5-2-3h21v-4h-23l-1-3 35-1-6-12v-2Z"/>
  <path fill="{{currentColor}}" d="m474 632 1 9-3 1.9c-13.7 8.9-26 17.8-31 34.1-1.4 6.4-1.3 12.9-1.4 19.4-.2 5-.4 8.5-3.6 12.6l-5-1c-2.2-4.3-1.2-10-1.2-14.8l-.1-6.4a48.8 48.8 0 0 1 13.9-36.9c5.1-4.8 11-8.8 16.8-12.8l4.1-2.9c5-3.3 5-3.3 9.5-2.2Z"/>
  <path fill="{{currentColor}}" d="M402 0h4a16 16 0 0 1 2.3 8.5l.1 2.6.1 2.8c.3 8.5 1 16.7 2.5 25.1l-2 1-2-7c-2 2-2.8 3.5-4 6h-2c-1.4-6-1.2-11.9-1.2-18V7.1c.2-3 .6-4.6 2.2-7.1Z"/>
  <path fill="{{currentColor}}" d="m99 390 1 2c5.8 1.4 12 1 18 .9h2.4a99 99 0 0 1 7.7-.3l5.2-.2 12.7-.4-1 3a8694.4 8694.4 0 0 1-24.7 0l-9 .1h-2.8c-5 0-9.6-.3-14.5-1.1l-1-3 6-1Z"/>
  <path fill="{{currentColor}}" d="M444.2 413.8h7.8c3.1.2 3.1.2 4.1 1.2l4.7.1h8.9l7.4-.1-2 3c-11.6 1.7-24.4-.8-36-2 2-2 2-2 5.2-2.2Z"/>
  <path fill="{{currentColor}}" d="M221 765h11l-1 3-28 1-1-3a100 100 0 0 1 19-1Z"/>
  <path fill="{{currentColor}}" d="M55.4 815.9h2.5l6.1.1v2l3 1c-5.1.8-10 1.2-15.2 1.2h-2.1c-3.7 0-6.5-.1-9.7-2.2 5.3-2.2 9.8-2.2 15.4-2.1Z"/>
  <path fill="{{currentColor}}" d="m159 778 1 2-3.6.8-4.7 1.1-2.4.6-2.3.5-2.1.5c-1.7.4-3.3 1-4.9 1.5l-2-2v-2a1499.2 1499.2 0 0 1 8.8-2l2.5-.7 2.5-.5 2.2-.5c2-.3 2-.3 5 .7Z"/>
  <path fill="{{currentColor}}" d="M330 801c1 3 1 3 .2 5.3-2.6 5-4.9 9-9.2 12.7l-2-1c.3-2.4.3-2.4 1-5l1.9-.9c2.7-1.4 3.4-3 4.8-5.7 2.3-4.4 2.3-4.4 3.3-5.4Z"/>
  <path fill="{{currentColor}}" d="M640 477c1.1 3.4.9 4-.4 7.2l-1 2.5-1 2.5-1 2.5a825.4 825.4 0 0 1-2.6 6.3h-2c.5-5.4 2-9.8 4-14.8 1-2.3 1-2.3 2-5.2l2-1Z"/>
  <path fill="{{currentColor}}" d="M405 411h8v2l1.7-.3c7.9-1 15.4-.4 23.3.3v1c-27.8 1.9-27.8 1.9-31.8-1.5L405 411Z"/>
  <path fill="{{currentColor}}" d="M556 655h3l6 19-3 1a871.6 871.6 0 0 1-1.5-5.3l-.8-2.9c-.7-2.8-.7-2.8-.7-6.8h-2l-1-5Z"/>
  <path fill="{{currentColor}}" d="m222 468 4 2v3h2l2 8h2l2 7-2 1-5-10-1.4-2.8-1.4-2.7-1.3-2.6c-.9-1.9-.9-1.9-.9-2.9Z"/>
  <path fill="{{currentColor}}" d="m369 405 8 1v2l3.2-.7c4.2-.3 5.6.1 8.8 2.7v1c-14.4-1.1-14.4-1.1-19-3l-1-3Z"/>
  <path fill="{{currentColor}}" d="m677 314 12 4-1 3-6-2 1 4-2 1a616 616 0 0 1-2-3.9l-1.1-2.2c-.9-1.9-.9-1.9-.9-3.9Z"/>
  <path fill="{{currentColor}}" d="M337 212v1.7l.4 7.6.2 2.7v2.6l.2 2.3c.1 2.3.1 2.3 1.2 5.1-3.9-1.8-3.9-1.8-5-4a243.2 243.2 0 0 1 0-8.6V213c2-1 2-1 3-1Z"/>
  <path fill="{{currentColor}}" d="m544 576 3 1-2 1v7l1 1a194.5 194.5 0 0 1 0 7h-2c-2.5-10.6-2.5-10.6-1-16l1-1Z"/>
  <path fill="{{currentColor}}" d="m190 327-1 3h-4a59.2 59.2 0 0 0-4 0l-1 1a73.8 73.8 0 0 1-4.6 0H171l-1-3 7.8-.5 2.2-.1c3.3-.3 6.6-.4 10-.4Z"/>
  <path fill="{{currentColor}}" d="m442 531 1 3h-1.9l-2.4-.1h-2.4c-2.6 0-2.6 0-5.3 2.1-3.2-.4-3.2-.4-6-1l1-3c5.4-.7 10.6-1.1 16-1Z"/>
  <path fill="{{currentColor}}" d="M160 363v2a3470.3 3470.3 0 0 1-8.4 3l-2.4.9-2.3.8-2.1.7c-1.8.6-1.8.6-3.8.6l-1-3 2.8-.4c2.9-.5 4.6-1.2 7.2-2.6 3.7-1.4 6-2 10-2Z"/>
  <path fill="{{currentColor}}" d="m616 461 3 2c-1 9-1 9-3 13l-3 2 3-17Z"/>
  <path fill="{{currentColor}}" d="M619 419h1v17h2c.5 3 1 5.9 1 9l-3 4v-11h-1v-19Z"/>
  <path fill="{{currentColor}}" d="M206 628h3l2 6.4 1.1 3.6c.9 3 .9 3 .9 5h-2l-2.5-6.4-1.4-3.6c-1.1-3-1.1-3-1.1-5Z"/>
  <path fill="{{currentColor}}" d="M311 620c2 3 3 5.6 4.2 9l1 3.2c.8 2.8.8 2.8-.2 5.8h-2a34 34 0 0 1-2-13l-2-1 1-4Z"/>
  <path fill="{{currentColor}}" d="M544 614c2 3 3 5.6 4.2 9l1 3c.8 3 .8 4.3-.2 7a24.9 24.9 0 0 1-3.6-7.9l-.7-2.5c-.7-2.5-1.3-5-1.7-7.6l1-1Z"/>
  <path fill="{{currentColor}}" d="M188 399c4.7.5 8.7 1 13 3v2l-8-2 1 5c-1.9-.6-1.9-.6-4-2-1.3-3.1-1.3-3.1-2-6Z"/>
  <path fill="{{currentColor}}" d="M433 369a25.4 25.4 0 0 1-10 3v-2l-10-1v-1a40 40 0 0 1 20 1Z"/>
  <path fill="{{currentColor}}" d="M91 815v1l-18 2v1h-6v-3c8-1.1 16-1.1 24-1Z"/>
  <path fill="{{currentColor}}" d="m470 631 4 1 1 9-4 2 1-8-5 1 1.5-2c1.6-1.7 1.6-1.7 1.5-3Z"/>
  <path fill="{{currentColor}}" d="M576 389c-3 2-5.7 3-9.2 4.1l-3.3 1.1-2.5.8v-3a429.4 429.4 0 0 1 5.3-2l2.9-1.2a9 9 0 0 1 6.8.2Z"/>
  <path fill="{{currentColor}}" d="M590 745a220.1 220.1 0 0 1 6.2 8.6l1.6 2.3c1.2 2.1 1.2 2.1 1.2 5.1-2.5-1.8-2.5-1.8-5-4v-3l-3-1c-1.2-3.6-1.2-3.6-2-7l1-1Z"/>
  <path fill="{{currentColor}}" d="M64 383c10 1.8 10 1.8 13 5v2l-4.8-1.4-2.7-.7C67 387 67 387 64 385v-2Z"/>
  <path fill="{{currentColor}}" d="m578 362-1 3a57 57 0 0 1-13 1l-2-2 5.8-1 3.2-.6c3-.4 3-.4 7-.4Z"/>
  <path fill="{{currentColor}}" d="M719 337a44.5 44.5 0 0 1-9.7 4.6l-3.6 1.4-2.7 1c1.3-3.8 2.3-4 5.8-5.8l2.6-1.3c3-1 4.6-.8 7.6.1Z"/>
  <path fill="{{currentColor}}" d="M242 178v3-3Zm-3 2 2 1a25.4 25.4 0 0 1-8 9l-2-2 8-8Z"/>
  <path fill="{{currentColor}}" d="M406 20h1l1 5h1l2 14-2 1-.4-2.2-.5-2.7-.6-2.8c-.3-2.3-.3-2.3-1.5-3.3a74.6 74.6 0 0 1 0-4.6V20Z"/>
  <path fill="{{currentColor}}" d="M237 696c3 1 3 1 4.1 2.8 1.5 3.6 2.2 7.4 2.9 11.2-2.8-1.7-3.9-2.7-5-5.7l-.7-3-.8-3-.5-2.3Z"/>
  <path fill="{{currentColor}}" d="m483 640 3 1c1 2.5 1 2.5 1.7 5.6l.7 3 .6 2.4h-3a687.8 687.8 0 0 1-1.5-4.3l-.8-2.4c-.7-2.3-.7-2.3-.7-5.3Z"/>
  <path fill="{{currentColor}}" d="m620 372 1 2-2-1 1-1Zm-3 2 3 1-.5 2a48 48 0 0 0-.5 10l-3-2c-.3-2-.3-2-.3-4.5l.1-2.4c.2-2.1.2-2.1 1.2-4.1Z"/>
  <path fill="{{currentColor}}" d="m183 365-2.8 1.3c-3.1 1.4-3.1 1.4-4.7 3.4L174 371c-3.2-.3-3.2-.3-6-1v-2a892.7 892.7 0 0 1 6.4-2l3.6-1.2c3-.8 3-.8 5 .2Z"/>
  <path fill="{{currentColor}}" d="m479 625 3 1 2 11h-3c-1.1-4.3-2-7.6-2-12Z"/>
  <path fill="{{currentColor}}" d="M174 359c-1 2-1 2-3.5 2.9l-3 .7-3.1.8-2.4.6-1-3 4.3-1.6 2.3-.8c2.6-.6 4-.4 6.4.4Z"/>
  <path fill="{{currentColor}}" d="m35 795 1 2c-9.4 2.3-9.4 2.3-14 2 4-3.3 7.9-5.7 13-4Z"/>
  <path fill="{{currentColor}}" d="M212 359c5.7-.6 9.2 1.3 14 4-3.4 1.1-5.8.8-9.3 0l-2.7-.5-2-.5v-3Z"/>
  <path fill="{{currentColor}}" d="m318 816 1 2 2 1c-2.8 1.9-5 3.1-8.4 2.8a91.5 91.5 0 0 1-6.6-1.8v-1l12-1v-2Z"/>
  <path fill="{{currentColor}}" d="M493 661c2 3 2 3 2 5l4 2-1 2 3 1-1 3c-7-6.8-7-6.8-7.1-10.7l.1-2.3Z"/>
  <path fill="{{currentColor}}" d="m418 619 1 2 2 1-12 5c2.3-4.6 3.5-5 8-7l1-1Z"/>
  <path fill="{{currentColor}}" d="M337 515h1c1.3 11.5 1.3 11.5 0 17h-1a1398.6 1398.6 0 0 1-.6-7.4l-.1-2c-.4-5.4-.4-5.4.7-7.6Z"/>
  <path fill="{{currentColor}}" d="M635 791c3.3 1.2 5.8 2.2 8 5v2c-3-1.1-5.3-2.2-8-4v-3Zm-2 2 2 2h-2v-2Z"/>
  <path fill="{{currentColor}}" d="M574 706h2l3 10h-3a19 19 0 0 1-2-10Z"/>
  <path fill="{{currentColor}}" d="M235 683c2.4 2.4 2.5 3.8 3.1 7.1l.5 2.8.4 2.1h-3a356.6 356.6 0 0 1-1-4.3l-.7-2.4c-.3-2.3-.3-2.3.7-5.3Z"/>
  <path fill="{{currentColor}}" d="M465 602a13 13 0 0 1-6.6 3.6l-2.5.8-1.9.6v-3c4.1-2.4 6.4-3.5 11-2Z"/>
  <path fill="{{currentColor}}" d="M487 594c-2.3 2.3-4 2.7-7.1 3.6l-2.8.8-2.1.6-1-3 1.8-.4c2.2-.5 2.2-.5 4.1-1.7 2.7-1.2 4.3-.7 7.1.1Z"/>
  <path fill="{{currentColor}}" d="M100 384h10v1l5 1v1h-15v-3Z"/>
  <path fill="{{currentColor}}" d="M645 300h3c-.5 4.4-1 8.7-2 13-2.3-3.5-2.1-4.2-1.6-8.2l.3-2.7.3-2.1Z"/>
  <path fill="{{currentColor}}" d="m617 246 3 1 .1 4.8v2.7c-.1 2.5-.1 2.5-2.1 5.5l-1-14Z"/>
  <path fill="{{currentColor}}" d="M649 801c3.8 1.4 7.4 3.2 11 5v3l-5-2v-2l-6-1v-3Z"/>
  <path fill="{{currentColor}}" d="M186 770v3c-7.4 2.4-7.4 2.4-11 1 1-2 1-2 2.8-2.6l2.1-.5 2.2-.5c1.9-.4 1.9-.4 3.9-.4Z"/>
  <path fill="{{currentColor}}" d="m345 582 .2 4.8v2.7c-.2 3-1 3.7-3.2 5.5-1-4.3-1.1-7.7 0-12 2-1 2-1 3-1Z"/>
  <path fill="{{currentColor}}" d="m185 272 2 1-2 12h-2a273.7 273.7 0 0 1-.1-4.3l-.1-2.3c.2-2.6 1-4.2 2.2-6.4Z"/>
  <path fill="{{currentColor}}" d="M321 179c3.4 1 6 2 9 4 .2 3.1.2 3.1 0 6l-.2-1.9c-.6-2.3-.6-2.3-3.2-3.2l-2.6-.9-3-2v-2Z"/>
  <path fill="{{currentColor}}" d="M527 559h1l2 13h-3a376.9 376.9 0 0 1-.6-4.3l-.3-2.3c-.1-2.4.2-4.2.9-6.4Z"/>
  <path fill="{{currentColor}}" d="M641 228c1.9 2.9 2.5 4.4 3.1 7.7l.5 2.4.4 1.9h-2c-2-3.4-3-5.3-2.7-9.4l.7-2.6Z"/>
  <path fill="{{currentColor}}" d="m171 816 9 3v2c-6.4.4-6.4.4-9.4-1.5L169 818l2-2Z"/>
  <path fill="{{currentColor}}" d="M398 630c-1 2-1 2-3 2.7l-2.4.5-2.5.6-2.1.2-2-2c4.2-1.6 7.5-2.2 12-2Z"/>
  <path fill="{{currentColor}}" d="M344 571h3l-1 9-3 1 1-10Z"/>
  <path fill="{{currentColor}}" d="M185 277h1l.2 2.5.2 3.2.3 3.3c.2 2.4.6 4.6 1.3 7h-2a17 17 0 0 1-1.6-10.8l.3-3 .3-2.2Z"/>
  <path fill="{{currentColor}}" d="M16.6 816H21v2c-3 2-3.7 2.2-7.2 2.1L10 820v-3c2.4-1.2 4-1.1 6.6-1Z"/>
  <path fill="{{currentColor}}" d="m271 170-1 3-11-1v-1c4-1 7.8-1 12-1Z"/>
  <path fill="{{currentColor}}" d="m208 583 3 1v6h-2l-1 4c-1.1-7.6-1.1-7.6 0-11Z"/>
  <path fill="{{currentColor}}" d="M336 461h1a48 48 0 0 1 1 13h-3c-.1-4.8-.1-4.8 1-7v-6Z"/>
  <path fill="{{currentColor}}" d="M195 406c2 2 2 2 2 5v3l1 3-2 1c-1.4-3.8-2.3-7-2-11l1-1Z"/>
  <path fill="{{currentColor}}" d="m203 326 1 2-7-1v2h-5c2-3 2-3 4.4-3.8 2.6-.2 4.2-.1 6.6.8Z"/>
  <path fill="{{currentColor}}" d="M310 209c1.2 4.8.3 5.9-2 10h-2v2l-2-1 6-11Z"/>
  <path fill="{{currentColor}}" d="m322 812 2 2c-.3 2-.3 2-1 4l-2 1-2-1 1-5 2-1Z"/>
  <path fill="{{currentColor}}" d="M138 781h9v2l-7 2-2-2v-2Z"/>
  <path fill="{{currentColor}}" d="M224 543c.7 1.8.7 1.8 1 4-1.3 2.3-1.3 2.3-3 4h-2a128.6 128.6 0 0 1 2-7l2-1Z"/>
  <path fill="{{currentColor}}" d="M577 717h3l3 9-3 1-1-8h-2v-2Z"/>
  <path fill="{{currentColor}}" d="m358.3 637.9 3.7.1-1 3-11-1c3.6-1.8 4.5-2.2 8.3-2.1Z"/>
  <path fill="{{currentColor}}" d="m707 326 7 2-1 3-8-3 2-2Z"/>
  <path fill="{{currentColor}}" d="m251 305 3 3-4 3-2-2 3-4Z"/>
  <path fill="{{currentColor}}" d="m264 282 2 2a16.4 16.4 0 0 1-5 8l-2-1 5-9Z"/>
  <path fill="{{currentColor}}" d="M500 106c7.6 1.9 7.6 1.9 10 5l-1 2-9-5v-2Z"/>
  <path fill="{{currentColor}}" d="M561 786h1v12h-3l2-12Z"/>
  <path fill="{{currentColor}}" d="M582 727c2 1 2 1 3.1 4l.9 3-3 1c-1.4-2.4-2-3.5-1.6-6.3l.6-1.7Z"/>
  <path fill="{{currentColor}}" d="M325 669c2.1 3.5 2.5 7 3 11h-3a493.3 493.3 0 0 1-.6-4.4l-.3-2.4c-.1-2.2-.1-2.2.9-4.2Z"/>
  <path fill="{{currentColor}}" d="m359 352 8 2v3l-8-2v-3Z"/>
  <path fill="{{currentColor}}" d="m259 343 2 1c-.2 1.8-.2 1.8-1 4-2.6 1.8-2.6 1.8-5 3l-1-3 5-1v-4Z"/>
  <path fill="{{currentColor}}" d="M80 333c-1.3 1.5-1.3 1.5-3 3h-4v-3c3.1-1 4-1 7 0Z"/>
  <path fill="{{currentColor}}" d="m643 311 2 2-1 3h-12c4-2 4-2 7.2-2.5l2.8-.5 1-2Z"/>
  <path fill="{{currentColor}}" d="m335 260 4 1v7l-3-1-1-7Z"/>
  <path fill="{{currentColor}}" d="M554 645c2 1 2 1 2.6 2.8l.5 2.3.5 2.2.4 1.7h-2c-2.3-3.4-2.2-5-2-9Z"/>
  <path fill="{{currentColor}}" d="M481 603h2l1 8-4-1 1-7Z"/>
  <path fill="{{currentColor}}" d="m623 514 2 1-5 8c-1-3-1-3-.2-5.6 1.2-2.4 1.2-2.4 3.2-3.4Z"/>
  <path fill="{{currentColor}}" d="M217 458c1.9.1 1.9.1 4 1 1.3 3 1.3 3 2 6h-3l-3-7Z"/>
  <path fill="{{currentColor}}" d="m619 360 2 1c-1.4 4.4-3.3 6.3-7 9l1-1.8c1.1-2.3 1.1-2.3 2-5.2h2v-3Z"/>
  <path fill="{{currentColor}}" d="m222 210 2 1v4h-2l1 4h-3l2-9Z"/>
  <path fill="{{currentColor}}" d="M319 649h2l2 9h-2v-3h-2v-6Z"/>
  <path fill="{{currentColor}}" d="m579 542 2 2-2 4h-3l2-2v-3l1-1Z"/>
  <path fill="{{currentColor}}" d="m402 537-1 2h-6l-2-2c3.4-.8 5.7-1.1 9 0Z"/>
  <path fill="{{currentColor}}" d="m236 510 2 1-1 7h-3l2-8ZM134 371l-1 3-6 1v-3c2.5-1.2 4.3-1 7-1Z"/>
  <path fill="{{currentColor}}" d="m677 314 7 2-3 1-1 3c-3-3.8-3-3.8-3-6Z"/>
  <path fill="{{currentColor}}" d="M249 729h3l2 4-1 3h-2l-2-7Z"/>
  <path fill="{{currentColor}}" d="M453 607c-2.7 1.8-5 2.9-8 4 .3-2 .3-2 1-4 3.1-1 4-1 7 0Z"/>
  <path fill="{{currentColor}}" d="M197 419c3 1 3 1 5 4v5a28.8 28.8 0 0 1-5-9Z"/>
  <path fill="{{currentColor}}" d="M645 402h1l1 9-3-1c-.1-5.8-.1-5.8 1-8Z"/>
  <path fill="{{currentColor}}" d="M527 406a16 16 0 0 1-8 3v-3c2.9-1.4 5-.6 8 0Z"/>
  <path fill="{{currentColor}}" d="m258 172-1 3-5 1v-3c3-1 3-1 6-1Z"/>
  <path fill="{{currentColor}}" d="m678 818-2 1.4-2 1.6v1l-6.4.2H664l-3-.2-2-3 6.7-.5 3.7-.3c3-.2 5.7-.2 8.6-.2Z"/>
  <path fill="{{currentColor}}" d="m201 818 11 1v2l4 1h-23v-1l3.4-.4 3.6-.6 1-2Z"/>
</svg>
