<svg width="164" height="187" viewBox="0 0 164 187" fill="none" xmlns="http://www.w3.org/2000/svg">
<path d="M88.1909 0.0177094C89.3362 0.0228337 90.4811 0.0177515 91.6264 0.0116135C95.7692 0.00794811 99.705 0.227241 103.773 1.10328C104.182 1.18793 104.592 1.27257 105.014 1.35979C106.039 1.57625 107.057 1.81334 108.075 2.06365C108.402 2.14288 108.729 2.22211 109.067 2.30374C109.861 2.51086 110.643 2.76339 111.421 3.02402C111.579 3.34094 111.737 3.65786 111.899 3.98438C112.69 4.17131 113.489 4.32473 114.289 4.46457C117.422 5.31823 117.423 5.31823 118.591 5.90512C118.887 6.04377 119.182 6.18242 119.487 6.32528C120.503 6.86548 120.503 6.86548 121.339 7.52574C122.871 8.63667 124.542 9.40426 126.239 10.2268C126.564 10.3945 126.889 10.5623 127.225 10.7351C128.215 11.2432 128.215 11.2432 129.585 11.6673C129.585 11.9842 129.585 12.3012 129.585 12.6277C130.362 13.2915 131.159 13.9335 131.975 14.5484C132.29 14.39 132.606 14.2315 132.931 14.0682C133.088 14.3951 133.246 14.7219 133.409 15.0586C134.259 16.3134 134.932 17.0131 136.068 17.9697C140.103 21.4076 143.351 25.4889 146.404 29.7999C146.69 30.1546 146.976 30.5092 147.27 30.8747C147.586 30.8747 147.901 30.8747 148.226 30.8747C148.384 31.35 148.542 31.8254 148.704 32.3152C149.02 32.4737 149.335 32.6321 149.66 32.7954C149.824 33.5949 149.983 34.3953 150.138 35.1963C150.454 35.5132 150.769 35.8302 151.094 36.1567C152.09 37.6573 152.528 38.6879 152.528 40.4783C152.844 40.6368 153.159 40.7953 153.484 40.9585C155.299 44.1045 156.601 47.8662 157.398 51.4025C157.526 51.9175 157.654 52.4325 157.786 52.9631C158.102 53.1216 158.417 53.28 158.742 53.4433C158.742 54.3941 158.742 55.3448 158.742 56.3244C159.058 56.4829 159.373 56.6413 159.698 56.8046C159.892 57.7584 160.047 58.7208 160.176 59.6857C160.444 61.1373 160.765 62.5727 161.102 64.0092C161.952 67.6479 162.766 71.2138 162.963 74.9582C163.018 75.9943 163.081 77.0301 163.151 78.0653C163.502 83.2529 163.706 88.4402 163.841 93.6379C163.867 94.5879 163.897 95.5378 163.93 96.4876C164.142 102.549 163.894 108.269 162.884 114.254C162.603 115.933 162.543 117.524 162.566 119.228C162.26 120.193 161.941 121.153 161.61 122.11C161.445 123.229 161.286 124.35 161.132 125.471C160.906 126.447 160.656 127.414 160.404 128.384C160.095 129.643 159.89 130.912 159.698 132.193C159.383 132.193 159.067 132.193 158.742 132.193C158.614 132.807 158.486 133.421 158.354 134.054C157.625 137.347 156.734 140.617 155.396 143.718C155.081 143.718 154.765 143.718 154.44 143.718C154.317 144.129 154.193 144.54 154.065 144.963C153.462 146.661 152.71 148.144 151.841 149.72C149.614 153.512 149.614 153.512 148.226 157.643C147.911 157.643 147.595 157.643 147.27 157.643C147.113 157.96 146.955 158.277 146.792 158.604C146.258 159.141 145.722 159.676 145.181 160.207C144.238 161.173 143.353 162.182 142.461 163.195C138.348 167.792 134.246 171.957 129.107 175.41C128.799 175.617 128.492 175.823 128.175 176.036C127.921 176.206 127.666 176.376 127.404 176.55C126.216 177.29 126.216 177.29 125.283 178.291C124.057 178.93 122.811 179.516 121.562 180.107C120.437 180.597 120.437 180.597 120.025 181.652C119.239 181.999 114.619 183.282 113.811 183.573C113.811 183.256 117.635 181.979 117.635 181.652C116.511 181.94 115.395 182.262 114.289 182.613C114.131 182.93 113.974 183.247 113.811 183.573C112.696 183.932 111.597 184.241 110.465 184.533C109.913 184.702 109.361 184.87 108.792 185.044C106.092 185.77 103.349 186.033 100.575 186.319C99.7623 186.419 98.9535 186.55 98.1486 186.699C96.6446 186.928 95.2383 186.996 93.7185 186.998C92.901 186.999 92.901 186.999 92.067 187C91.5035 186.998 90.9401 186.996 90.3595 186.994C89.5337 186.997 89.5337 186.997 88.6912 187C82.5411 186.993 76.5504 186.847 70.7917 184.533C70.1608 184.533 69.5298 184.533 68.8797 184.533C68.8797 184.217 68.8797 183.9 68.8797 183.573C67.9333 183.573 66.9869 183.573 66.0118 183.573C66.0118 183.256 66.0118 182.939 66.0118 182.613C65.5879 182.553 65.1639 182.494 64.7272 182.433C63.2736 182.157 62.0811 181.82 60.7539 181.172C60.5961 180.855 60.4384 180.538 60.2759 180.212C59.6449 180.212 59.014 180.212 58.3639 180.212C58.3639 179.895 58.3639 179.578 58.3639 179.251C57.4175 179.251 56.4711 179.251 55.496 179.251C55.2594 178.538 55.2593 178.538 55.018 177.811C53.8332 177.017 53.8332 177.017 52.4189 176.31C51.71 175.937 51.71 175.937 50.9868 175.556C50.2603 175.185 49.533 174.816 48.8041 174.45C48.0019 173.655 47.2062 172.854 46.4141 172.049C45.5217 171.224 44.6253 170.404 43.7254 169.588C36.2813 162.782 36.2813 162.782 34.4643 160.044C33.9911 159.727 33.5179 159.41 33.0303 159.084C33.0303 158.767 33.0303 158.45 33.0303 158.123C32.5186 157.208 31.9762 156.309 31.4171 155.422C31.1176 154.941 30.8182 154.459 30.5097 153.963C30.2373 153.593 29.965 153.223 29.6844 152.841C29.3689 152.841 29.0534 152.841 28.7284 152.841C28.6545 152.292 28.6545 152.292 28.579 151.731C28.2179 150.313 27.8346 149.98 26.8164 149C26.7523 148.728 26.6883 148.456 26.6222 148.176C26.2483 146.73 25.5899 145.522 24.9045 144.198C24.0754 142.596 23.3657 141.162 22.9925 139.396C22.8249 138.99 22.6573 138.584 22.4846 138.166C22.0365 136.995 22.0365 136.995 22.0365 135.555C21.721 135.396 21.4056 135.238 21.0805 135.075C21.0805 134.282 21.0805 133.49 21.0805 132.674C20.765 132.515 20.4496 132.357 20.1245 132.193C19.9303 131.24 19.7758 130.277 19.6465 129.312C19.4364 128.076 19.2127 127.015 18.7204 125.861C17.8318 123.498 17.253 120.95 17.2603 118.418C17.3384 117.294 17.3384 117.294 16.7786 116.347C15.7071 107.811 15.7265 99.0086 15.8226 90.4174C15.3494 90.5759 14.8762 90.7344 14.3886 90.8976C13.3075 90.5244 13.3075 90.5244 12.148 89.9673C11.7617 89.7847 11.3754 89.6021 10.9773 89.4139C10.6834 89.2697 10.3895 89.1255 10.0867 88.9769C9.92896 89.2938 9.77122 89.6107 9.6087 89.9373C9.34252 89.6302 9.07634 89.3232 8.80209 89.0069C7.59126 87.922 6.89208 87.7133 5.30677 87.5363C5.30677 87.2194 5.30677 86.9025 5.30677 86.576C4.71982 86.0325 4.10773 85.5163 3.48443 85.0154C1.827 83.5891 0.754312 82.4596 0.0488603 80.3336C-0.104366 78.1786 0.115865 76.2072 0.526853 74.0912C1.00006 73.9327 1.47328 73.7743 1.96083 73.611C2.11857 73.1356 2.2763 72.6603 2.43882 72.1705C3.36493 71.6603 3.36493 71.6603 4.35079 71.2101C4.824 70.7347 4.824 70.7347 5.30677 70.2497C5.78477 69.7695 6.26276 69.2894 6.74075 68.8092C6.89849 69.1261 7.05623 69.443 7.21874 69.7695C7.66238 69.5616 8.10602 69.3536 8.5631 69.1393C11.6288 67.8221 14.8564 66.7606 18.2126 66.8884C18.4707 65.3693 18.7094 63.8562 18.8997 62.3267C19.159 60.7059 19.5802 59.3089 20.1245 57.765C20.2823 57.2103 20.44 56.6557 20.6025 56.0843C20.9149 54.986 21.2526 53.8946 21.6183 52.8131C22.0858 51.5966 22.0858 51.5966 22.0365 50.5622C22.352 50.5622 22.6675 50.5622 22.9925 50.5622C22.9629 50.1165 22.9333 49.6709 22.9029 49.2117C22.9925 47.6811 22.9925 47.6811 23.7095 46.8708C23.9461 46.6628 24.1827 46.4548 24.4265 46.2405C24.4265 45.7652 24.4265 45.2898 24.4265 44.8C24.7419 44.8 25.0574 44.8 25.3824 44.8C25.5001 44.4063 25.6178 44.0126 25.7391 43.607C26.4398 41.6335 27.3313 39.8198 28.2803 37.9574C28.5414 37.4393 28.5414 37.4393 28.8077 36.9107C29.2577 36.0183 29.7099 35.1271 30.1624 34.236C30.3201 33.919 30.4778 33.6021 30.6404 33.2756C30.848 33.0707 31.0557 32.8658 31.2696 32.6547C32.2929 31.6124 33.0996 30.4686 33.9564 29.2841C37.4208 24.5826 41.0768 19.9913 45.5814 16.2535C46.5256 15.4722 46.5256 15.4723 47.3701 14.0682C47.6856 14.0682 48.001 14.0682 48.3261 14.0682C49.5369 13.1477 50.6899 12.1696 51.8513 11.1871C55.6155 8.30604 55.6155 8.30604 57.4079 8.30604C57.5657 7.98911 57.7234 7.67219 57.8859 7.34567C58.3591 7.34567 58.8323 7.34567 59.3199 7.34567C59.4776 7.02875 59.6354 6.71183 59.7979 6.3853C60.2711 6.3853 60.7443 6.3853 61.2319 6.3853C61.3896 6.06838 61.5473 5.75146 61.7099 5.42493C63.5298 4.5679 65.4721 4.00029 67.3804 3.3729C68.1599 3.10663 68.9269 2.80318 69.6863 2.48381C71.0053 1.98247 72.2648 1.78364 73.6597 1.58346C75.2312 1.33789 76.7091 1.05146 78.2417 0.613719C81.5115 -0.118566 84.8588 -7.05384e-06 88.1909 0.0177094ZM79.8119 6.64016C78.9176 6.86548 78.9176 6.86548 77.2446 7.07557C75.4888 7.35904 73.9389 7.86185 72.2668 8.45234C71.1519 8.82568 70.0335 9.04907 68.8797 9.2664C68.722 9.42486 68.5643 9.58332 68.4017 9.74659C67.7731 9.96053 67.1398 10.1607 66.5047 10.3543C64.0537 11.1589 61.8298 12.2499 59.5589 13.468C59.1628 13.6794 58.7667 13.8909 58.3587 14.1087C54.2191 16.2974 54.2191 16.2974 50.716 19.3503C50.716 19.8256 50.716 20.301 50.716 20.7908C50.4418 20.8325 50.1676 20.8742 49.8851 20.9172C48.4989 21.3708 47.834 22.0591 46.8025 23.0904C46.4291 23.4637 46.0557 23.8369 45.671 24.2215C45.2853 24.6146 44.8995 25.0076 44.5021 25.4126C44.1164 25.7945 43.7307 26.1764 43.3333 26.5699C41.2389 28.6843 39.6352 30.6197 38.2882 33.2756C37.6619 34.0846 37.0272 34.8873 36.3763 35.6765C36.2185 35.9934 36.0608 36.3103 35.8983 36.6369C35.5828 37.0231 35.2673 37.4094 34.9423 37.8073C33.9132 38.9905 33.9132 38.9905 33.5083 40.4783C32.4211 42.9916 31.2754 45.4765 30.0429 47.9212C29.1923 49.5311 29.1923 49.5311 28.7284 51.0424C28.4107 51.8031 28.0919 52.5633 27.7724 53.3233C26.98 55.2917 26.554 57.0834 26.3384 59.2055C25.8604 60.6461 25.8604 60.6461 25.3526 61.7265C24.806 63.3371 24.8385 64.7183 24.9045 66.4083C25.2199 66.4083 25.5354 66.4083 25.8604 66.4083C26.0478 65.9032 26.2351 65.3981 26.4281 64.8777C27.3071 62.8045 28.6022 61.1896 30.6404 60.1659C30.7919 59.2564 30.7919 59.2564 30.8196 58.1851C31.0388 55.801 31.6353 54.4293 33.0303 52.4829C34.8917 51.0925 36.9052 50.082 39.2442 50.082C39.3434 49.6122 39.4426 49.1424 39.5448 48.6583C40.5567 44.2157 41.8607 40.9512 45.3218 37.8148C46.0944 37.0925 46.0944 37.0925 45.9361 35.6765C46.4093 35.835 46.8825 35.9934 47.3701 36.1567C48.1781 35.696 48.9732 35.2124 49.76 34.7161C53.4304 33.2733 56.9617 33.2336 60.8528 33.3056C62.1669 33.3716 62.1669 33.3716 63.1438 32.7954C63.1438 33.1123 63.1438 33.4292 63.1438 33.7558C63.8393 34.0102 64.5368 34.2593 65.235 34.5061C65.6232 34.6453 66.0114 34.7846 66.4114 34.9281C67.459 35.321 67.459 35.321 68.4017 34.7161C68.6384 35.6669 68.6384 35.6669 68.8797 36.6369C69.353 36.4784 69.8262 36.32 70.3137 36.1567C70.156 36.6321 69.9982 37.1075 69.8357 37.5972C70.4514 38.4145 71.0928 39.2123 71.7477 39.9982C73.4997 42.7949 73.2775 45.0894 73.0836 48.2532C72.9966 50.7648 73.389 52.3448 74.6998 54.499C75.0936 55.364 75.0936 55.364 74.8546 57.1947C74.1376 58.7253 74.1377 58.7253 73.1705 59.3931C71.9579 60.3849 71.9035 61.0046 71.6879 62.5368C71.4455 64.1843 71.1231 65.4312 70.3137 66.8884C69.6398 68.0328 69.6398 68.0328 69.3577 69.2894C90.1791 69.4478 111 69.6063 132.453 69.7695C132.519 63.3406 132.519 63.3406 131.497 57.2848C131.382 56.685 131.382 56.685 131.265 56.0731C130.645 53.0825 129.452 50.6408 127.673 48.1613C127.357 47.6859 127.042 47.2105 126.717 46.7207C123.272 42.2868 118.824 38.6747 113.811 36.1567C113.325 35.8695 112.839 35.5823 112.338 35.2864C112.05 35.1168 111.762 34.9471 111.465 34.7724C110.862 34.4172 110.261 34.0596 109.661 33.6995C108.358 32.9368 107.264 32.3409 105.769 32.0751C105.426 31.9959 105.083 31.9167 104.729 31.835C104.214 30.9441 104.214 30.9441 103.773 29.9143C102.945 29.0869 102.945 29.0869 101.981 28.3237C100.126 26.7533 98.6138 25.0776 97.0813 23.1917C95.2637 23.8004 95.0656 24.4166 94.0938 26.0428C92.9863 27.8543 91.8566 29.6235 90.6284 31.3549C89.425 33.0736 88.232 34.7973 87.0733 36.5468C86.6528 37.1754 86.6528 37.1754 86.2238 37.8167C85.5534 39.1492 85.4806 39.9674 85.6095 41.4387C85.294 41.4387 84.9785 41.4387 84.6535 41.4387C84.4169 42.3895 84.4169 42.3895 84.1755 43.3594C83.8699 43.4189 83.5643 43.4783 83.2494 43.5395C82.924 43.6386 82.5987 43.7376 82.2635 43.8396C82.1058 44.1565 81.948 44.4735 81.7855 44.8C81.1849 45.6643 80.5662 46.5142 79.9482 47.366C79.3656 48.1634 79.3656 48.1634 78.9176 49.1216C78.3201 49.9019 78.3201 49.9019 77.4836 50.5622C76.199 50.6522 76.199 50.6522 75.0936 50.5622C75.3847 47.9797 75.8485 46.6365 77.4407 44.5824C80.0835 41.2059 80.0835 41.2059 80.8295 37.1171C81.145 37.1171 81.4605 37.1171 81.7855 37.1171C81.9433 36.4832 82.101 35.8494 82.2635 35.1963C82.5426 35.1709 82.8218 35.1456 83.1093 35.1194C84.6746 34.5274 85.0903 33.5258 85.9381 32.1051C86.2258 31.6304 86.5136 31.1556 86.81 30.6665C87.5245 29.4287 88.0259 28.3939 88.4774 27.0332C88.7929 27.0332 89.1084 27.0332 89.4334 27.0332C90.1962 25.9767 90.8969 24.9264 91.5844 23.822C91.8737 23.3712 91.8737 23.3712 92.1688 22.9113C93.7914 20.3424 94.7468 18.0704 95.1693 15.0286C95.958 14.8701 96.7467 14.7117 97.5593 14.5484C98.6265 15.8832 99.3166 17.1485 99.9791 18.72C101.395 21.6348 103.509 23.7637 106.163 25.5926C107.447 25.9693 107.447 25.9693 108.553 26.0728C108.711 26.5482 108.869 27.0236 109.031 27.5134C109.905 28.1564 109.905 28.1564 110.997 28.7045C111.397 28.9165 111.796 29.1285 112.208 29.3469C112.629 29.5639 113.049 29.7808 113.482 30.0043C113.897 30.2269 114.312 30.4494 114.74 30.6787C117.234 32.0075 117.234 32.0075 120.025 32.3152C119.867 32.6321 119.709 32.9491 119.547 33.2756C120.401 33.7704 121.258 34.2595 122.116 34.7461C122.593 35.0191 123.07 35.2921 123.561 35.5733C123.972 35.7658 124.382 35.9584 124.805 36.1567C125.12 35.9982 125.436 35.8398 125.761 35.6765C125.788 35.9458 125.815 36.215 125.843 36.4924C126.418 38.0979 127.463 38.8116 128.748 39.9081C131.365 42.2 133.398 44.4685 134.843 47.6811C135.069 48.1268 135.296 48.5724 135.53 49.0316C138.041 54.1788 138.801 58.5806 138.965 64.2774C138.984 64.8076 139.002 65.3378 139.021 65.884C139.066 67.1791 139.107 68.4742 139.145 69.7695C139.46 69.6111 139.776 69.4526 140.101 69.2894C141.078 69.3315 142.054 69.4058 143.028 69.4994C143.552 69.5483 144.076 69.5972 144.615 69.6476C145.018 69.6879 145.421 69.7281 145.836 69.7695C145.994 68.9772 146.152 68.1849 146.314 67.3686C148.419 67.7558 150.399 68.3712 152.429 69.038C153.496 69.4118 153.496 69.4118 154.44 68.8092C154.44 69.2846 154.44 69.7599 154.44 70.2497C154.914 70.2497 155.387 70.2497 155.874 70.2497C155.968 67.9043 155.694 66.2063 154.918 64.0073C154.849 63.4725 154.78 62.9377 154.709 62.3867C154.458 60.7617 154.004 59.4007 153.398 57.8794C152.949 56.6461 152.618 55.4047 152.289 54.1336C151.738 52.03 151.04 50.1363 150.138 48.1613C149.981 47.6859 149.823 47.2105 149.66 46.7207C149.281 45.9259 148.892 45.136 148.495 44.3498C148.289 43.9394 148.082 43.529 147.87 43.1062C147.672 42.7144 147.474 42.3226 147.27 41.9189C147.04 41.4277 147.04 41.4277 146.806 40.9266C146.257 39.889 145.583 39.0152 144.881 38.0774C144.522 37.4227 144.173 36.7621 143.835 36.0967C139.914 28.9229 133.552 22.4862 126.732 18.0748C125.761 17.4295 125.761 17.4295 124.476 16.3791C122.78 15.0432 121.252 14.0682 119.069 14.0682C119.227 13.7513 119.384 13.4344 119.547 13.1079C118.871 12.7958 118.193 12.4861 117.515 12.1775C117.138 12.0048 116.761 11.8321 116.373 11.6542C115.36 11.2349 114.393 10.9684 113.333 10.707C113.175 10.5485 113.018 10.39 112.855 10.2268C111.674 9.84868 110.483 9.51626 109.291 9.17824C108.075 8.78622 108.075 8.78622 107.114 8.28915C105.997 7.74509 104.995 7.56068 103.773 7.34567C103.254 7.2262 102.734 7.10674 102.199 6.98365C97.8428 6.07504 93.6457 5.76296 89.1944 5.75506C88.6699 5.75255 88.1455 5.75003 87.6051 5.74744C84.9097 5.77074 82.4244 5.95616 79.8119 6.64016ZM56.4519 52.9631C54.6841 55.7499 53.4684 58.1413 53.106 61.4564C52.762 64.5372 51.8117 66.0439 49.76 68.329C52.5993 68.4875 55.4386 68.6459 58.3639 68.8092C58.0484 67.6999 57.733 66.5907 57.4079 65.4479C59.0087 64.9454 60.0752 64.9862 61.6501 65.4479C63.5976 65.9721 65.0113 66.1282 66.9678 65.4479C68.3902 63.5974 68.8797 62.0147 68.8797 59.6857C68.5643 59.5272 68.2488 59.3688 67.9238 59.2055C67.9238 58.8886 67.9238 58.5717 67.9238 58.2451C68.7124 58.0867 69.5011 57.9282 70.3137 57.765C70.8475 56.1563 71.4307 56.0117 70.3137 55.0117C69.9307 54.5117 69.9307 55.0117 69.453 53.4509C69.3577 49.1216 70.7594 46.8647 69.453 46.8708C68.7829 46.8768 63.8274 49.1155 63.1438 49.1216C60.5193 49.1309 59.0481 53.3537 56.4519 52.9631ZM45.8017 71.7228C41.5355 72.4733 37.3614 72.7955 33.0303 72.8007C32.3041 72.8044 32.3041 72.8044 31.5632 72.8082C28.5744 72.7808 25.7387 72.4608 22.8012 71.9068C17.4446 70.9735 11.874 72.3455 7.21874 75.0516C5.73285 76.1025 5.73285 76.1025 4.82878 77.4525C4.74956 79.3626 5.1452 80.1283 6.32251 81.6241C9.6884 84.3438 13.5188 84.9395 17.7346 84.6552C22.0941 84.1229 26.1933 83.0687 30.2819 81.474C31.87 80.889 33.2762 80.5671 34.9423 80.3336C35.4155 80.1751 35.8887 80.0167 36.3763 79.8534C37.4606 79.7952 38.5468 79.7692 39.6326 79.7634C40.2075 79.7566 40.7823 79.7498 41.3746 79.7427C43.0837 79.8544 44.3365 80.2233 45.9361 80.8138C49.7473 81.8327 53.0269 82.5178 56.9299 81.7741C55.8651 81.2222 54.8769 80.7676 53.7334 80.3936C53.3686 80.2153 53.0038 80.0371 52.628 79.8534C52.3914 78.9026 52.3914 78.9026 52.15 77.9327C53.5696 77.9327 54.9893 77.9327 56.4519 77.9327C56.6097 77.4573 56.7674 76.9819 56.9299 76.4921C56.1314 76.2693 56.1314 76.2693 55.3167 76.0419C53.584 75.5318 53.584 75.5318 52.628 75.0516C52.628 74.5762 52.628 74.1008 52.628 73.611C54.2054 73.611 55.7828 73.611 57.4079 73.611C57.4079 73.1356 57.4079 72.6603 57.4079 72.1705C56.4224 72.0081 55.4365 71.8486 54.4503 71.6903C53.6268 71.5566 53.6268 71.5566 52.7867 71.4202C50.3143 71.0941 48.2361 71.2847 45.8017 71.7228ZM57.8859 72.6507C58.0437 72.9676 58.2014 73.2845 58.3639 73.611C58.5216 73.2941 58.6794 72.9772 58.8419 72.6507C58.5264 72.6507 58.211 72.6507 57.8859 72.6507ZM153.484 73.611C152.637 73.8984 151.779 74.156 150.915 74.3913C150.244 74.5789 150.244 74.5789 149.56 74.7702C148.274 75.0416 147.145 75.1042 145.836 75.0516C145.679 74.5762 145.521 74.1008 145.359 73.611C144.412 73.611 143.466 73.611 142.491 73.611C142.531 73.9991 142.571 74.3872 142.612 74.7871C142.685 75.5568 142.685 75.5568 142.759 76.3421C142.809 76.849 142.859 77.356 142.911 77.8783C142.966 79.2947 142.79 80.3997 142.491 81.7741C142.504 82.4149 142.533 83.0557 142.58 83.6949C142.607 85.2856 142.49 85.6171 141.594 87.0562C140.579 88.0165 140.579 88.0165 139.623 88.0165C139.638 88.5386 139.638 88.5386 139.653 89.0711C139.693 90.6803 139.718 92.2893 139.742 93.8988C139.758 94.446 139.774 94.9931 139.791 95.5569C139.835 99.481 139.17 102.632 137.711 106.264C137.553 106.688 137.395 107.112 137.233 107.549C136.755 108.664 136.755 108.664 135.739 109.925C134.695 111.012 134.695 111.012 134.843 112.506C134.843 112.823 134.843 113.14 134.843 113.466C134.133 113.229 134.133 113.229 133.409 112.986C133.16 113.276 132.912 113.565 132.656 113.864C130.943 115.836 129.309 117.679 127.195 119.228C126.84 119.535 126.485 119.843 126.119 120.159C125.029 120.98 124.028 121.591 122.833 122.23C119.254 124.172 115.972 126.694 112.855 129.312C112.855 129.471 112.855 129.629 112.855 129.792C112.411 129.971 112.411 129.971 111.959 130.153C110.775 130.852 110.488 131.415 109.987 132.674C109.514 132.674 109.041 132.674 108.553 132.674C107.055 134.223 106.494 135.37 106.163 137.475C105.848 137.951 105.532 138.426 105.207 138.916C105 139.342 104.793 139.768 104.58 140.206C103.773 141.317 103.773 141.317 102.548 141.527C101.383 141.317 101.383 141.317 100.427 140.357C100.408 139.822 100.388 139.287 100.367 138.736C100.04 135.279 97.4146 132.422 95.3616 129.764C94.6145 128.725 94.0502 127.661 93.4665 126.521C92.2014 124.152 90.7983 121.912 89.3139 119.679C89.001 119.207 89.001 119.207 88.6818 118.725C87.8765 117.526 87.1083 116.413 86.0875 115.387C85.6095 114.427 85.1315 113.466 84.6535 112.506C84.0417 111.525 83.3964 110.578 82.7415 109.625C81.6077 110.054 81.6077 110.054 81.2777 111.606C80.4061 115.225 80.2016 117.325 81.7818 120.731C82.5956 122.494 83.2001 123.884 83.4585 125.831C83.8867 128.627 86.1647 130.399 88.0607 132.37C92.1577 136.64 96.4096 141.204 98.9932 146.599C99.4618 147.325 99.9403 148.046 100.427 148.76C101.334 150.089 102.102 151.401 102.817 152.841C103.452 153.644 104.089 154.444 104.729 155.242C105.628 156.547 106.128 157.419 106.372 158.994C106.668 160.678 107.264 161.836 108.053 163.332C108.735 164.742 109.192 166.193 109.647 167.689C109.997 168.718 110.458 169.639 110.943 170.608C111.222 171.823 111.426 173.039 111.63 174.27C111.857 175.528 111.857 175.528 112.855 176.85C114.691 176.85 115.177 176.759 116.698 175.939C117.054 175.748 117.41 175.558 117.777 175.361C118.144 175.159 118.511 174.958 118.89 174.75C119.446 174.453 119.446 174.453 120.014 174.149C122.07 173.054 122.07 173.054 123.849 171.568C124.484 171.243 125.121 170.923 125.761 170.608C130.054 167.795 136.824 162.786 139.145 158.123C139.575 157.617 140.015 157.117 140.459 156.623C142.471 154.3 144.258 151.702 145.299 148.79C145.836 147.559 145.836 147.559 146.511 146.908C147.435 145.948 147.916 144.979 148.495 143.778C148.792 143.171 148.792 143.171 149.095 142.551C149.644 141.352 150.138 140.146 150.616 138.916C150.809 138.438 151.001 137.96 151.199 137.468C152.248 134.808 153.2 132.237 153.742 129.427C153.998 128.179 154.335 126.967 154.679 125.741C155.361 123.267 155.887 120.79 156.352 118.268C156.436 117.843 156.52 117.418 156.606 116.979C156.69 116.543 156.774 116.107 156.86 115.657C156.972 115.079 156.972 115.079 157.086 114.489C157.708 110.284 157.858 106.103 157.85 101.857C157.85 101.316 157.851 100.775 157.851 100.217C157.851 99.0783 157.851 97.9399 157.849 96.8016C157.846 95.079 157.849 93.3564 157.852 91.6338C158.176 81.9933 158.176 81.9933 156.352 72.6507C154.83 72.5175 154.83 72.5175 153.484 73.611ZM58.8419 73.1308C58.8419 73.4478 58.8419 73.7647 58.8419 74.0912C59.4728 73.9327 60.1038 73.7743 60.7539 73.611C60.1229 73.4526 59.492 73.2941 58.8419 73.1308ZM87.0434 73.611C88.9554 74.0912 88.9554 74.0912 88.9554 74.0912L87.0434 73.611ZM89.4334 73.611C89.2757 73.9279 89.1179 74.2449 88.9554 74.5714C89.5174 74.7348 89.5174 74.7348 90.0906 74.9015C91.8234 75.5317 91.8234 75.5318 92.7924 76.1301C96.6116 78.4452 100.404 78.2756 104.729 77.9327C104.887 77.7742 105.045 77.6157 105.207 77.4525C105.863 77.3885 106.522 77.3548 107.181 77.3343C107.593 77.3193 108.006 77.3042 108.431 77.2887C108.875 77.2734 109.32 77.2581 109.778 77.2424C113.043 77.1028 116.298 76.9399 119.547 76.5822C120.434 76.4884 120.434 76.4884 121.339 76.3927C123.082 75.9655 123.983 75.3102 125.283 74.0912C124.752 73.4497 124.752 73.4497 123.405 73.5533C122.464 73.5549 122.464 73.5549 121.504 73.5565C120.986 73.5564 120.986 73.5564 120.458 73.5563C119.312 73.5566 118.166 73.5604 117.021 73.5641C116.228 73.565 115.436 73.5657 114.644 73.5662C112.554 73.568 110.465 73.5727 108.375 73.578C106.245 73.5829 104.114 73.5851 101.983 73.5876C97.8001 73.5927 93.6168 73.6009 89.4334 73.611ZM132.453 73.611C132.689 74.3241 132.689 74.3241 132.931 75.0516C132.534 74.8687 132.534 74.8687 132.13 74.682C130.924 74.4387 130.924 74.4388 129.803 75.4361C129.386 75.8341 128.969 76.2321 128.539 76.6422C128.118 77.0365 127.697 77.4308 127.264 77.837C126.224 78.8013 126.224 78.8013 125.761 79.8534C124.387 80.086 123.051 80.2594 121.668 80.3936C121.292 80.4351 120.916 80.4766 120.528 80.5193C118.443 80.7369 116.419 80.8108 114.32 80.7856C112.397 80.8404 110.509 81.1905 108.613 81.504C107.001 81.7655 105.388 82.0148 103.773 82.2543C103.368 82.3208 102.963 82.3873 102.546 82.4558C99.6614 82.8586 97.6772 82.5445 95.0199 81.384C94.6968 81.2525 94.3736 81.1209 94.0406 80.9854C92.7033 80.4388 91.3769 79.8669 90.0496 79.2963C88.4186 78.6952 86.8562 78.5891 85.1315 78.4128C85.3747 79.7567 85.6706 80.9907 86.1173 82.2843C86.8591 84.7682 86.6409 87.3721 86.5655 89.9373C97.332 92.452 107.28 91.0039 117.635 87.5363C118.108 87.3779 118.581 87.2194 119.069 87.0562C119.405 86.9367 119.741 86.8172 120.087 86.6941C123.391 85.5913 126.595 85.2938 130.063 85.1354C130.24 84.3035 130.24 84.3035 130.421 83.4548C131.088 80.8187 131.914 78.332 134.006 76.5221C135.736 75.8507 137.297 75.689 139.145 75.5317C138.908 75.0564 138.908 75.0564 138.667 74.5714C136.542 73.9311 134.684 73.4709 132.453 73.611ZM64.0998 74.5714C63.4994 76.1699 63.3069 76.775 63.6218 78.4128C64.8451 80.2562 66.2896 81.8625 67.7812 83.4857C68.6283 84.4267 69.3979 85.4181 70.1643 86.4259C70.4237 86.7639 70.6832 87.1018 70.9504 87.4501C71.5273 88.2074 72.1036 88.9653 72.6794 89.7234C72.9832 90.1208 73.2869 90.5182 73.5999 90.9276C73.8747 91.2897 74.1495 91.6519 74.4327 92.0249C74.6508 92.2868 74.8689 92.5486 75.0936 92.8184C75.2514 92.8184 75.4091 92.8184 75.5716 92.8184C75.6522 87.8417 75.0992 83.5937 73.4785 78.9043C73.1817 77.9327 73.1817 77.9327 73.1817 76.9723C73.8024 77.4885 74.419 78.0097 75.0339 78.5329C75.3777 78.8226 75.7215 79.1123 76.0758 79.4107C77.003 80.331 77.4441 81.0671 77.9616 82.2543C78.2081 82.6406 78.4545 83.0268 78.7085 83.4248C80.5526 88.0159 79.863 93.2819 79.3956 98.1004C80.4992 97.6836 80.4992 97.6836 80.8295 96.2997C81.0662 95.5272 81.0661 95.5272 81.3075 94.7391C81.4727 94.4092 81.6378 94.0793 81.8079 93.7393C82.4762 91.684 82.4017 89.7141 82.383 87.5664C82.3867 87.1433 82.3904 86.7202 82.3942 86.2843C82.3873 83.9707 82.2806 81.9977 81.3075 79.8534C80.9921 79.6949 80.6766 79.5365 80.3515 79.3732C80.3121 79.0068 80.2727 78.6403 80.2321 78.2628C79.9651 76.8271 79.9651 76.8271 78.4993 75.8319C78.0064 75.5744 77.5135 75.3169 77.0056 75.0516C76.5324 75.21 76.0592 75.3685 75.5716 75.5317C75.5716 75.2148 75.5716 74.8979 75.5716 74.5714C74.2237 74.1874 73.024 74.0296 71.6245 74.0274C71.2468 74.0268 70.869 74.0262 70.4799 74.0256C69.8948 74.0283 69.8948 74.0283 69.298 74.0312C68.9043 74.0293 68.5105 74.0275 68.1049 74.0256C66.0375 73.9685 66.0375 73.9685 64.0998 74.5714ZM57.4079 76.9723C57.2502 77.2892 57.0924 77.6061 56.9299 77.9327C57.8764 77.9327 58.8228 77.9327 59.7979 77.9327C59.6401 77.6157 59.4824 77.2988 59.3199 76.9723C58.6889 76.9723 58.058 76.9723 57.4079 76.9723ZM135.799 78.893C135.483 79.21 135.168 79.5269 134.843 79.8534C135.789 79.8534 136.736 79.8534 137.711 79.8534C137.553 79.5365 137.395 79.2196 137.233 78.893C136.759 78.893 136.286 78.893 135.799 78.893ZM137.711 78.893C137.868 79.21 138.026 79.5269 138.189 79.8534C138.82 79.6949 139.451 79.5365 140.101 79.3732C139.312 79.2148 138.523 79.0563 137.711 78.893ZM61.2319 80.8138C60.5177 81.6394 59.8415 82.4921 59.1612 83.346C57.3107 85.2702 55.0517 85.5562 52.4712 85.6606C49.0602 85.7027 45.7334 85.6552 42.5902 84.1751C42.4922 84.4703 42.3942 84.7656 42.2933 85.0698C41.7549 86.6923 41.2166 88.3148 40.6782 89.9373C40.3569 96.9618 41.2742 102.885 45.4581 108.664C45.7736 108.664 46.0891 108.664 46.4141 108.664C46.4141 108.981 46.4141 109.298 46.4141 109.625C49.8082 113.043 54.1093 114.821 58.8419 115.387C59.1925 115.467 59.5431 115.547 59.9043 115.629C64.4661 116.448 69.8583 116.291 74.1376 114.427C76.7307 112.519 77.7012 109.784 78.4396 106.744C78.5921 106.252 78.5921 106.252 78.7477 105.75C79.0561 104.65 79.0561 104.65 78.9176 102.902C77.9922 101.438 76.7813 100.29 75.5716 99.0607C71.7293 94.4915 68.2439 89.6088 64.7048 84.8015C64.5057 84.5322 64.3067 84.2629 64.1016 83.9854C63.5651 83.2592 63.0305 82.5317 62.4959 81.8041C62.2365 81.4773 61.9771 81.1505 61.7099 80.8138C61.5521 80.8138 61.3944 80.8138 61.2319 80.8138ZM133.887 82.2543C134.044 82.7297 134.202 83.2051 134.365 83.6949C136.507 84.0418 136.507 84.0418 138.667 84.1751C138.824 83.6997 138.982 83.2243 139.145 82.7345C137.409 82.576 135.674 82.4176 133.887 82.2543ZM118.611 91.873C117.494 92.4055 116.46 92.5945 115.245 92.8184C114.466 93.0499 113.689 93.2902 112.915 93.5386C110.985 94.1312 109.128 94.5062 107.119 94.7391C105.545 94.9745 104.104 95.2642 102.578 95.7295C97.2371 97.081 91.454 96.0034 86.0875 95.2193C85.6042 96.6834 85.6042 96.6834 86.0875 98.1004C85.772 98.2588 85.4565 98.4173 85.1315 98.5806C84.465 100.515 83.9419 102.29 84.1755 104.343C84.491 104.66 84.8064 104.977 85.1315 105.303C85.9488 106.71 86.7373 108.128 87.5168 109.556C88.3514 111.058 89.1537 112.284 90.3894 113.466C90.7986 114.154 91.1861 114.856 91.5545 115.567C92.2156 116.8 92.8213 117.84 93.7055 118.928C94.6571 120.145 95.3173 121.315 96.0357 122.68C97.6435 125.713 99.4284 128.789 101.861 131.233C102.177 131.075 102.492 130.916 102.817 130.753C102.817 130.436 102.817 130.119 102.817 129.792C103.101 129.744 103.385 129.696 103.678 129.646C104.922 129.251 105.382 128.776 106.253 127.812C109.854 124.04 114.279 121.156 118.591 118.268C119.211 117.812 119.828 117.351 120.443 116.888C120.915 116.533 120.915 116.533 121.395 116.171C121.732 115.912 122.068 115.654 122.415 115.387C122.804 115.088 123.192 114.789 123.593 114.481C124.853 113.426 125.944 112.315 127.045 111.095C127.412 110.695 127.779 110.294 128.156 109.882C129.403 108.285 129.909 106.727 130.541 104.823C131.014 104.348 131.014 104.348 131.497 103.863C132.62 100.922 132.565 98.1291 132.512 95.0092C132.508 94.5205 132.504 94.0318 132.499 93.5283C132.488 92.3312 132.473 91.1343 132.453 89.9373C127.689 88.4647 123.007 89.5461 118.611 91.873ZM21.5585 91.858C21.6039 94.3161 21.6548 96.774 21.7102 99.2319C21.7283 100.064 21.745 100.897 21.7602 101.729C21.8815 108.306 22.0697 114.802 23.9485 121.149C24.0175 121.595 24.0865 122.041 24.1576 122.5C24.4597 124.22 24.951 125.824 25.4683 127.489C26.0294 129.411 26.4598 131.36 26.8911 133.315C27.3086 134.639 27.8368 135.465 28.7284 136.515C29.2111 135.597 29.688 134.676 30.1624 133.754C30.4286 133.241 30.6947 132.729 30.969 132.201C31.7235 130.723 31.7235 130.723 31.5963 128.832C31.9118 128.832 32.2273 128.832 32.5523 128.832C32.7101 128.198 32.8678 127.564 33.0303 126.911C33.3088 126.881 33.5873 126.851 33.8743 126.819C35.3882 126.269 35.8374 125.388 36.7348 124.06C38.9538 120.864 41.2159 117.615 44.0241 114.907C43.8664 114.59 43.7087 114.273 43.5462 113.946C43.3884 113.946 43.2307 113.946 43.0682 113.946C43.0682 113.63 43.0682 113.313 43.0682 112.986C42.5949 112.748 42.5949 112.748 42.1122 112.506C41.5325 111.65 40.9782 110.777 40.4392 109.895C39.2682 107.965 39.2682 107.965 37.8102 106.264C36.8838 104.246 36.3084 102.199 35.8983 100.021C35.7405 99.6448 35.5828 99.2684 35.4203 98.8807C34.8412 97.3537 34.6752 95.8748 34.4643 94.2589C33.5826 94.2153 33.5826 94.2153 32.683 94.1708C31.9026 94.1302 31.1221 94.0895 30.3416 94.0488C29.9553 94.0299 29.5689 94.0111 29.1709 93.9916C23.8052 93.7068 23.8052 93.7068 22.0365 92.8184C21.8788 92.5014 21.721 92.1845 21.5585 91.858ZM83.6975 102.422C84.1755 103.382 84.1755 103.382 84.1755 103.382L83.6975 102.422ZM79.8736 115.867C80.3516 116.828 80.3515 116.828 80.3515 116.828L79.8736 115.867ZM49.2821 117.788C46.9158 120.413 44.7629 123.133 42.7097 126.011C42.3058 126.567 42.3058 126.567 41.8937 127.135C40.4979 129.08 39.3151 130.98 38.2882 133.154C37.6644 133.965 37.0294 134.767 36.3763 135.555C36.2185 135.872 36.0608 136.189 35.8983 136.515C35.6617 136.812 35.4251 137.109 35.1813 137.415C34.4187 138.363 34.4187 138.363 34.2552 139.366C33.8722 140.777 32.9931 141.639 32.0743 142.757C31.7355 143.387 31.4077 144.024 31.1184 144.678C31.7493 145.47 32.3803 146.263 33.0303 147.079C35.6488 143.89 38.0819 140.6 40.4541 137.226C41.8394 135.256 43.266 133.317 44.6963 131.379C45.3763 130.392 45.9018 129.433 46.4141 128.352C47.6609 126.339 49.051 124.585 50.6339 122.837C51.2915 122.136 51.2915 122.136 51.194 121.149C51.5095 121.308 51.825 121.466 52.15 121.629C51.4341 124.409 50.4126 126.979 49.2821 129.612C48.9433 130.409 48.6047 131.205 48.2663 132.002C48.1089 132.37 47.9515 132.738 47.7894 133.117C47.4502 133.924 47.1299 134.738 46.8155 135.555C46.4141 136.515 46.4141 136.515 45.727 137.175C44.8137 138.13 44.4829 139.159 43.9999 140.373C43.3057 141.817 42.3352 143.012 41.3541 144.269C40.6182 145.201 40.6182 145.201 39.9015 146.479C39.1757 147.672 38.3293 148.51 37.3323 149.48C36.4087 150.356 36.4087 150.356 35.8983 151.401C36.349 153.363 37.4789 154.694 38.7662 156.203C40.494 155.485 41.4642 154.493 42.6798 153.081C43.0119 152.7 43.344 152.319 43.6862 151.926C44.5185 150.975 44.5185 150.975 44.9801 149.96C45.7222 148.895 46.4546 148.001 47.4 147.109C48.3892 146.172 48.3892 146.172 48.8041 144.918C49.3612 143.519 50.1087 142.817 51.194 141.797C51.4306 141.322 51.4306 141.322 51.672 140.837C52.1 140.146 52.5282 139.456 52.9566 138.766C54.0898 136.882 55.049 134.982 55.9441 132.974C57.3349 129.857 58.9867 126.945 60.7539 124.03C60.6004 125.632 60.439 127.232 60.2759 128.832C60.2414 129.203 60.2069 129.574 60.1713 129.956C59.9914 131.689 59.8224 132.637 58.8419 134.114C58.5595 135.049 58.5596 135.049 58.3639 136.035C58.2653 136.372 58.1667 136.708 58.0652 137.055C57.7829 137.994 57.7829 137.994 58.3639 138.916C58.0484 138.916 57.733 138.916 57.4079 138.916C57.1196 139.466 56.8312 140.017 56.5341 140.583C56.1482 141.318 55.7624 142.053 55.3765 142.787C55.1873 143.149 54.9981 143.51 54.8032 143.882C51.5173 150.132 47.5761 155.585 43.0682 161.004C45.4343 164.024 48.1912 166.32 51.194 168.687C54.0727 166.537 56.1505 163.818 58.3639 161.004C58.7096 160.575 59.0552 160.147 59.4114 159.705C60.1895 158.713 60.7868 157.861 61.2319 156.683C61.0741 156.366 60.9164 156.049 60.7539 155.722C61.0484 155.681 61.3429 155.639 61.6464 155.597C62.7196 155.336 62.7196 155.336 63.2372 154.423C63.3838 154.089 63.5305 153.755 63.6816 153.412C63.9052 152.917 63.9052 152.917 64.1334 152.412C64.2801 152.078 64.4267 151.745 64.5778 151.401C64.7442 151.072 64.9105 150.743 65.0819 150.405C65.5908 149.416 65.5908 149.416 66.0118 148.039C66.3304 147.399 66.6491 146.759 66.9678 146.119C67.1255 145.713 67.2832 145.307 67.4458 144.888C67.9238 143.718 67.9238 143.718 68.8797 142.277C69.0619 141.643 69.2207 141.002 69.3577 140.357C69.5155 139.752 69.6732 139.148 69.8357 138.526C70.1471 137.288 70.3615 136.138 70.5228 134.864C70.8012 133.093 71.2867 131.531 71.8821 129.847C72.2466 128.836 72.2466 128.836 72.4497 127.772C72.5335 127.488 72.6173 127.204 72.7037 126.911C73.1769 126.674 73.1769 126.674 73.6597 126.431C73.5808 126.897 73.5019 127.362 73.4207 127.842C73.2308 129.162 73.1898 130.3 73.2115 131.653C73.2709 136.626 72.4237 141.744 71.3985 146.597C71.1739 147.592 71.1739 147.592 71.7477 148.52C71.2745 148.757 71.2745 148.757 70.7917 149C70.3827 149.976 70.3827 149.976 70.015 151.191C69.1663 153.634 68.1427 155.931 66.9976 158.243C66.8429 158.561 66.6882 158.878 66.5288 159.205C65.4232 161.407 64.1197 163.339 62.6658 165.326C62.5081 165.643 62.3504 165.96 62.1878 166.286C61.0746 167.637 59.9435 168.972 58.8102 170.306C57.7443 171.501 57.7443 171.501 57.8859 173.009C58.162 173.148 58.438 173.286 58.7224 173.429C59.3757 173.757 60.0281 174.087 60.6792 174.42C61.7683 174.959 62.8695 175.458 63.9803 175.95C64.3623 176.12 64.7444 176.289 65.138 176.464C65.4263 176.592 65.7147 176.719 66.0118 176.85C66.7997 176.009 66.7997 176.009 67.4458 174.93C67.342 173.87 67.342 173.87 66.9678 173.009C67.441 173.009 67.9142 173.009 68.4017 173.009C68.6156 172.545 68.8294 172.081 69.0497 171.602C70.5484 168.357 72.0585 165.125 73.6858 161.942C75.2553 158.685 76.0349 154.875 77.0056 151.401C77.119 151.04 77.2323 150.679 77.3492 150.307C80.0979 141.126 81.0933 129.32 76.6789 120.603C76.0767 119.56 76.0767 119.56 74.6156 119.228C74.1652 119.375 73.7148 119.521 73.2508 119.671C70.5394 120.52 67.7181 120.327 64.9064 120.309C64.346 120.313 63.7856 120.316 63.2082 120.32C58.2301 120.309 53.9515 119.452 49.2821 117.788ZM83.6975 135.555C83.6741 136.129 83.6507 136.702 83.6265 137.293C83.4526 141.142 83.2402 144.779 82.2635 148.52C81.9996 150.228 81.7792 151.935 81.5764 153.652C81.3362 155.073 81.0308 155.926 80.3515 157.163C80.1768 157.799 80.0199 158.44 79.8736 159.084C79.1196 162.02 78.0359 164.775 76.8861 167.577C76.6958 168.043 76.5054 168.509 76.3093 168.99C74.9304 172.331 73.4544 175.584 71.7477 178.771C72.3293 178.87 72.911 178.969 73.5103 179.071C74.0011 179.155 74.0011 179.155 74.5017 179.24C75.9241 179.255 76.7024 178.97 77.9616 178.291C78.8948 176.969 78.8948 176.969 79.642 175.341C79.786 175.049 79.9301 174.758 80.0785 174.458C80.3808 173.842 80.6795 173.225 80.9747 172.606C81.4249 171.663 81.886 170.726 82.3494 169.789C84.0878 166.241 84.0878 166.241 85.1315 162.445C85.5945 161.794 86.0704 161.151 86.5655 160.524C86.5655 160.207 86.5655 159.89 86.5655 159.564C86.8809 159.564 87.1964 159.564 87.5214 159.564C87.6495 162.795 87.3507 165.769 86.7279 168.942C86.4524 170.127 86.4524 170.127 87.0434 171.088C86.728 171.088 86.4125 171.088 86.0875 171.088C85.7779 172.008 85.4694 172.929 85.1613 173.849C84.9894 174.362 84.8175 174.874 84.6404 175.402C84.2804 176.524 83.9624 177.625 83.6975 178.771C83.5382 179.411 83.3788 180.052 83.2195 180.692C85.575 181.306 87.9136 181.264 90.3296 181.262C90.7736 181.262 91.2175 181.262 91.6749 181.262C96.9066 181.219 102.049 180.572 107.119 179.251C106.657 176.584 106.105 174.074 105.101 171.559C104.715 170.572 104.392 169.578 104.072 168.567C102.503 163.839 100.443 159.537 97.9271 155.257C97.4416 154.422 96.9715 153.576 96.5491 152.706C96.1309 151.789 96.1309 151.789 95.1693 150.921C94.6961 151.158 94.6961 151.158 94.2133 151.401C94.2035 150.935 94.1936 150.47 94.1834 149.99C93.826 147.387 92.0391 145.649 90.3894 143.718C89.3773 142.469 88.4344 141.251 87.5513 139.906C86.5075 138.349 85.41 136.962 84.1755 135.555C84.0178 135.555 83.86 135.555 83.6975 135.555Z" fill="white"/>
</svg>
